<svg xmlns="http://www.w3.org/2000/svg" xmlns:xlink="http://www.w3.org/1999/xlink" version="1.1">
    <symbol id="microsoft-logo" viewBox="0 0 112 24">
        <g stroke="none" stroke-width="1" fill="none" fill-rule="evenodd">
            <g transform="translate(-76.000000, -294.000000)">
                <g transform="translate(76.000000, 294.000000)">
                    <path d="M106.501611,11.0429918 L102.931858,11.0429918 L102.931858,19.2634849 L100.505556,19.2634849 L100.505556,11.0429918 L98.8018849,11.0429918 L98.8018849,9.08189589 L100.505556,9.08189589 L100.505556,7.66556712 C100.505556,6.5957589 100.853721,5.71926575 101.550378,5.03608767 C102.247036,4.35258082 103.139967,4.01099178 104.229501,4.01099178 C104.519803,4.01099178 104.777556,4.0257863 105.002104,4.05537534 C105.226323,4.08529315 105.42457,4.13000548 105.596186,4.18918356 L105.596186,6.25910137 C105.516953,6.21307397 105.378214,6.15685479 105.180296,6.0907726 C104.982049,6.02501918 104.754214,5.9918137 104.497118,5.9918137 C103.994762,5.9918137 103.608789,6.14863562 103.337885,6.46227945 C103.066981,6.77592329 102.931858,7.2398137 102.931858,7.85362192 L102.931858,9.08189589 L106.501611,9.08189589 L106.501611,6.79400548 L108.908515,6.06118356 L108.908515,9.08189589 L111.335145,9.08189589 L111.335145,11.0429918 L108.908515,11.0429918 L108.908515,15.8068274 C108.908515,16.4344438 109.022268,16.8766356 109.250104,17.1340603 C109.47794,17.3914849 109.835967,17.5203616 110.324844,17.5203616 C110.463255,17.5203616 110.62994,17.4874849 110.824899,17.4214027 C111.019529,17.3553205 111.189501,17.2764164 111.335145,17.1837041 L111.335145,19.164526 C111.182926,19.2503342 110.930433,19.3295671 110.577337,19.4022247 C110.224241,19.4748822 109.875748,19.5110466 109.532515,19.5110466 C108.522214,19.5110466 107.764405,19.2424438 107.259419,18.7039233 C106.754104,18.1657315 106.501611,17.3553205 106.501611,16.2723616 L106.501611,11.0429918 Z M90.5869808,14.2422247 C90.5869808,15.3051288 90.8279671,16.1171836 91.3099397,16.6787178 C91.7919123,17.2399233 92.4819945,17.5203616 93.3798575,17.5203616 C94.2517479,17.5203616 94.9152,17.2399233 95.3705425,16.6787178 C95.8262137,16.1171836 96.0540493,15.2854027 96.0540493,14.1827178 C96.0540493,13.0866082 95.8179945,12.2597589 95.3458849,11.7015123 C94.8737753,11.1435945 94.2116384,10.8648 93.3601315,10.8648 C92.4819945,10.8648 91.8001315,11.1567452 91.3148712,11.7412932 C90.829611,12.3255123 90.5869808,13.1592658 90.5869808,14.2422247 Z M88.0909808,14.3211288 C88.0909808,12.6375123 88.5663781,11.3040329 89.5171726,10.3200329 C90.4679671,9.33603288 91.7886247,8.84419726 93.4788164,8.84419726 C95.0703781,8.84419726 96.3131178,9.31795068 97.2080219,10.2654575 C98.1025973,11.2132932 98.5500493,12.492526 98.5500493,14.1034849 C98.5500493,15.7542247 98.0743233,17.0683068 97.1238575,18.0454027 C96.173063,19.0228274 94.8787068,19.5110466 93.2411178,19.5110466 C91.6630356,19.5110466 90.4101041,19.0474849 89.4826521,18.1197041 C88.5548712,17.1922521 88.0909808,15.9258411 88.0909808,14.3211288 Z M82.693611,11.7560877 C82.693611,12.0996493 82.8024329,12.3685808 83.0204055,12.5635397 C83.2380493,12.7581699 83.7200219,13.0040877 84.4663233,13.3009644 C85.4236932,13.6843068 86.0956932,14.1149918 86.4819945,14.5936767 C86.8682959,15.0723616 87.0612822,15.6519781 87.0612822,16.3318685 C87.0612822,17.2892384 86.693063,18.0585534 85.9569534,18.6394849 C85.2205151,19.2207452 84.225337,19.5110466 82.9707616,19.5110466 C82.5482959,19.5110466 82.0811178,19.4600877 81.5692274,19.3575123 C81.0576658,19.2552658 80.6233644,19.125074 80.2669808,18.9662795 L80.2669808,16.6093479 C80.702926,16.9131288 81.1714192,17.1537863 81.6734466,17.3319781 C82.1751452,17.5104986 82.6304877,17.5995945 83.0401315,17.5995945 C83.581611,17.5995945 83.981063,17.5236493 84.2384877,17.3717589 C84.4962411,17.2201973 84.624789,16.9657315 84.624789,16.6093479 C84.624789,16.278937 84.4913096,16.0001425 84.2236932,15.7723068 C83.9564055,15.5444712 83.4494466,15.2817863 82.703474,14.9849096 C81.8187616,14.6150466 81.191474,14.1991562 80.821611,13.7369096 C80.4517479,13.274663 80.2669808,12.6871562 80.2669808,11.9740603 C80.2669808,11.0561425 80.6315836,10.3019507 81.3614466,9.7108274 C82.0906521,9.12003288 83.0368438,8.82447123 84.1990356,8.82447123 C84.5554192,8.82447123 84.9552,8.86392329 85.3973918,8.94315616 C85.8399123,9.02271781 86.2094466,9.12496438 86.5066521,9.25022466 L86.5066521,11.5282521 C86.1897205,11.3168548 85.8198575,11.1357041 85.3973918,10.9834849 C84.9745973,10.8315945 84.5554192,10.7556493 84.1395288,10.7556493 C83.6838575,10.7556493 83.3291178,10.8447452 83.0749808,11.022937 C82.8205151,11.2014575 82.693611,11.4457315 82.693611,11.7560877 Z M71.165063,14.2422247 C71.165063,15.3051288 71.4060493,16.1171836 71.8883507,16.6787178 C72.3699945,17.2399233 73.0600767,17.5203616 73.9579397,17.5203616 C74.8298301,17.5203616 75.4932822,17.2399233 75.9486247,16.6787178 C76.4042959,16.1171836 76.6321315,15.2854027 76.6321315,14.1827178 C76.6321315,13.0866082 76.3960767,12.2597589 75.9239671,11.7015123 C75.4518575,11.1435945 74.7900493,10.8648 73.9385425,10.8648 C73.0600767,10.8648 72.3785425,11.1567452 71.8929534,11.7412932 C71.4076932,12.3255123 71.165063,13.1592658 71.165063,14.2422247 Z M68.669063,14.3211288 C68.669063,12.6375123 69.1444603,11.3040329 70.0952548,10.3200329 C71.0463781,9.33603288 72.3667068,8.84419726 74.0572274,8.84419726 C75.6484603,8.84419726 76.8915288,9.31795068 77.7861041,10.2654575 C78.6806795,11.2132932 79.1281315,12.492526 79.1281315,14.1034849 C79.1281315,15.7542247 78.6527342,17.0683068 77.7019397,18.0454027 C76.7511452,19.0228274 75.4571178,19.5110466 73.8195288,19.5110466 C72.2411178,19.5110466 70.9885151,19.0474849 70.0607342,18.1197041 C69.1329534,17.1922521 68.669063,15.9258411 68.669063,14.3211288 Z M67.6380493,8.91356712 C67.8293918,8.91356712 68.001337,8.92704658 68.1532274,8.95334795 C68.3051178,8.97964932 68.4336658,9.01252603 68.5395288,9.05230685 L68.5395288,11.4786082 C68.4139397,11.3862247 68.2308164,11.2991014 67.9898301,11.2162521 C67.7488438,11.1337315 67.4565699,11.0926356 67.113337,11.0926356 C66.5255014,11.0926356 66.0287342,11.3401973 65.6227068,11.8353205 C65.2166795,12.3304438 65.0135014,13.0931836 65.0135014,14.123211 L65.0135014,19.2634849 L62.6164603,19.2634849 L62.6164603,9.08189589 L65.0135014,9.08189589 L65.0135014,10.6862795 L65.0529534,10.6862795 C65.270926,10.1316493 65.6010082,9.69767671 66.0435288,9.38403288 C66.4860493,9.07071781 67.017337,8.91356712 67.6380493,8.91356712 Z M58.4470356,17.5203616 C58.8034192,17.5203616 59.1962959,17.4381699 59.6256658,17.2728 C60.0547068,17.1077589 60.4508712,16.8901151 60.8141589,16.619211 L60.8141589,18.8475945 C60.4311452,19.0655671 59.9971726,19.2306082 59.5115836,19.3427178 C59.0266521,19.4551562 58.493063,19.5110466 57.9121315,19.5110466 C56.4132822,19.5110466 55.1948712,19.0376219 54.2575562,18.0897863 C53.3199123,17.1426082 52.8510904,15.9324164 52.8510904,14.4601973 C52.8510904,12.8226082 53.3297753,11.4740055 54.287474,10.4140603 C55.2445151,9.35411507 56.601337,8.82447123 58.3579397,8.82447123 C58.8070356,8.82447123 59.2607342,8.88233425 59.7200219,8.99773151 C60.1786521,9.11345753 60.5432548,9.24693699 60.8141589,9.3988274 L60.8141589,11.6965808 C60.4442959,11.4260055 60.0665425,11.2162521 59.6799123,11.0676493 C59.2939397,10.9193753 58.8990904,10.8447452 58.4966795,10.8447452 C57.5524603,10.8447452 56.7897205,11.1518137 56.208789,11.7659507 C55.6275288,12.3800877 55.3368986,13.2085808 55.3368986,14.2520877 C55.3368986,15.2817863 55.6160219,16.0843068 56.1739397,16.658663 C56.7318575,17.2333479 57.4896658,17.5203616 58.4470356,17.5203616 Z M48.7806247,19.2634849 L51.177337,19.2634849 L51.177337,9.08189589 L48.7806247,9.08189589 L48.7806247,19.2634849 Z M48.5327342,6.14041644 C48.5327342,5.74425205 48.6764055,5.41252603 48.9637479,5.14490959 C49.2510904,4.87762192 49.5926795,4.7438137 49.9888438,4.7438137 C50.4113096,4.7438137 50.7614466,4.88090959 51.0385973,5.1547726 C51.3160767,5.42896438 51.4548164,5.75740274 51.4548164,6.14041644 C51.4548164,6.53000548 51.312789,6.8568 51.0287342,7.1208 C50.7446795,7.38512877 50.3981589,7.51696438 49.9888438,7.51696438 C49.5792,7.51696438 49.2343233,7.38348493 48.9538849,7.11619726 C48.6731178,6.84825205 48.5327342,6.52343014 48.5327342,6.14041644 Z M46.4703781,5.06074521 L46.4703781,19.2634849 L44.0042959,19.2634849 L44.0042959,8.13110137 L43.9648438,8.13110137 L39.557063,19.2634849 L37.9230904,19.2634849 L33.4064877,8.13110137 L33.3768986,8.13110137 L33.3768986,19.2634849 L31.0988712,19.2634849 L31.0988712,5.06074521 L34.6347616,5.06074521 L38.7154192,15.5891836 L38.7745973,15.5891836 L43.0830904,5.06074521 L46.4703781,5.06074521 Z" id="Fill-1" fill="#FFFFFF"/>
                    <polygon id="Fill-3" fill="#F25022" points="0.327452055 11.5772055 11.5772055 11.5772055 11.5772055 0.327452055 0.327452055 0.327452055"/>
                    <polygon id="Fill-5" fill="#7FBA00" points="12.7479452 11.5772055 23.9976986 11.5772055 23.9976986 0.327452055 12.7479452 0.327452055"/>
                    <polygon id="Fill-6" fill="#00A4EF" points="0.327452055 23.9976986 11.5772055 23.9976986 11.5772055 12.7479452 0.327452055 12.7479452"/>
                    <polygon id="Fill-7" fill="#FFB900" points="12.7479452 23.9976986 23.9976986 23.9976986 23.9976986 12.7479452 12.7479452 12.7479452"/>
                </g>
            </g>
        </g>
    </symbol>

    <symbol width="300px" height="168px" id="illustration1" viewBox="0 0 300 168">
        <defs>
            <rect id="path-1" x="0" y="0" width="320" height="210"/>
            <path d="M7,14 C10.8659932,14 14,10.8659932 14,7 C14,3.13400675 10.8659932,0 7,0 C3.13400675,0 0,3.13400675 0,7 C0,10.8659932 3.13400675,14 7,14 Z" id="path-3"/>
            <path d="M0,14 L22,14 L22,11.0833333 C22,4.96217736 17.0751322,0 11,0 C4.92486775,0 -9.76843606e-13,4.96217736 2.27304287e-13,11.0833333 C4.56745752e-13,12.25 0,14 0,14 Z" id="path-5"/>
            <path d="M0,14 L22,14 L22,11.0833333 C22,4.96217736 17.0751322,0 11,0 C4.92486775,0 -9.76843606e-13,4.96217736 2.27304287e-13,11.0833333 C4.56745752e-13,12.25 0,14 0,14 Z" id="path-7"/>
        </defs>
        <g id="Pages" stroke="none" stroke-width="1" fill="none" fill-rule="evenodd">
            <g id="Landing" transform="translate(-77.000000, -1282.000000)">
                <g id="Artifical-Intelligence-technologies-for-your-videos" transform="translate(0.000000, 1110.000000)">
                    <g id="Illustrator1" transform="translate(76.000000, 152.000000)">
                        <mask id="mask-2" fill="white">
                            <use xlink:href="#path-1"/>
                        </mask>
                        <g id="Mask" opacity="0.416893116"/>
                        <g id="Group-8" mask="url(#mask-2)">
                            <g transform="translate(2.000000, 21.000000)">
                                <g id="Group-2" stroke="none" stroke-width="1" fill="none" fill-rule="evenodd" transform="translate(59.000000, 60.000000)" stroke-linecap="round" stroke-linejoin="round">
                                    <path d="M1,81 L151.029997,81" id="Line" stroke="#AAAAAA" stroke-width="2"/>
                                    <rect id="Rectangle" stroke="#3B3B3B" stroke-width="2" x="0" y="0" width="150" height="90"/>
                                    <circle id="Oval" stroke="#000000" stroke-width="2" cx="75" cy="41" r="16"/>
                                    <path d="M16,79 L16,83" id="Line" stroke="#1AD0B7" stroke-width="2"/>
                                    <path d="M26,79 L26,83" id="Line-Copy" stroke="#1AD0B7" stroke-width="2"/>
                                    <polygon id="Triangle" stroke="#3B3B3B" stroke-width="2" fill="#FFFFFF" points="83 41 71 48 71 34"/>
                                </g>
                                <path d="M35,94 L79.0092102,94 C81.7655473,94 84,91.7566822 84,89.0099002 L84,80.9900998 C84,78.2341438 86.2368979,76 88.9964125,76 L103.5,76" id="Path-2-Copy" stroke="#AAAAAA" stroke-width="2" fill="none" stroke-linecap="round" stroke-linejoin="round"/>
                                <path d="M11,52 L64.9951444,52 C67.7592498,52 70,54.23631 70,57.0019727 L70,70.9980273 C70,73.7605405 72.2394256,76 75.0017826,76 L99,76" id="Path-2-Copy-2" stroke="#AAAAAA" stroke-width="2" fill="none" stroke-linecap="round" stroke-linejoin="round"/>
                                <path d="M176,11 L221.99372,11 C224.758612,11 227,13.2415247 227,16.0051058 L227,88.9948942 C227,91.7591378 229.23409,94 231.994081,94 L234,94" id="Path-2-Copy-4" stroke="#AAAAAA" stroke-width="2" fill="none" stroke-linecap="round" stroke-linejoin="round" transform="translate(205.000000, 52.500000) scale(1, -1) translate(-205.000000, -52.500000) "/>
                                <path d="M170,31 L221.991587,31 C224.757657,31 227,33.2422034 227,35.9961638 L227,89.0038362 C227,91.7631413 229.236284,94 232.005322,94 L267,94" id="Path-2-Copy-5" stroke="#AAAAAA" stroke-width="2" fill="none" stroke-linecap="round" stroke-linejoin="round" transform="translate(218.500000, 62.500000) scale(1, -1) translate(-218.500000, -62.500000) "/>
                                <path d="M164,100 C167.313708,100 170,97.3137085 170,94 C170,90.6862915 167.313708,88 164,88 C160.686292,88 158,90.6862915 158,94 C158,97.3137085 160.686292,100 164,100 Z" id="Oval-2-Copy-2" stroke="#AAAAAA" stroke-width="2" fill="#FFFFFF" fill-rule="evenodd" stroke-linecap="round" stroke-linejoin="round"/>
                                <path d="M104,82 C107.313708,82 110,79.3137085 110,76 C110,72.6862915 107.313708,70 104,70 C100.686292,70 98,72.6862915 98,76 C98,79.3137085 100.686292,82 104,82 Z" id="Oval-2-Copy" stroke="#AAAAAA" stroke-width="2" fill="#FFFFFF" fill-rule="evenodd" stroke-linecap="round" stroke-linejoin="round"/>
                                <path d="M104,78 C105.104569,78 106,77.1045695 106,76 C106,74.8954305 105.104569,74 104,74 C102.895431,74 102,74.8954305 102,76 C102,77.1045695 102.895431,78 104,78 Z" id="Oval-3-Copy" stroke="none" fill="#1AD0B7" fill-rule="evenodd"/>
                                <path d="M164,96 C165.104569,96 166,95.1045695 166,94 C166,92.8954305 165.104569,92 164,92 C162.895431,92 162,92.8954305 162,94 C162,95.1045695 162.895431,96 164,96 Z" id="Oval-3-Copy-2" stroke="none" fill="#1AD0B7" fill-rule="evenodd"/>
                                <g id="Group-12" stroke="none" stroke-width="1" fill="none" fill-rule="evenodd" transform="translate(185.000000, 68.000000)">
                                    <path d="M6,-1.86732411e-13 L23.494884,-2.1891316e-13 C25.9829909,-2.23489878e-13 30.012656,-2.20844138e-13 32.5047899,-2.12974059e-13 L59.4952101,-1.27739184e-13 C61.9831369,-1.19882391e-13 64,2.01977567 64,4.5 L64,9" id="Path-2-Copy-6" stroke="#AAAAAA" stroke-width="2" stroke-linecap="round" stroke-linejoin="round" transform="translate(35.000000, 4.500000) scale(1, -1) translate(-35.000000, -4.500000) "/>
                                    <path d="M6,15 C9.3137085,15 12,12.3137085 12,9 C12,5.6862915 9.3137085,3 6,3 C2.6862915,3 0,5.6862915 0,9 C0,12.3137085 2.6862915,15 6,15 Z" id="Oval-2-Copy-3" stroke="#AAAAAA" stroke-width="2" fill="#FFFFFF" stroke-linecap="round" stroke-linejoin="round"/>
                                    <path d="M6,11 C7.1045695,11 8,10.1045695 8,9 C8,7.8954305 7.1045695,7 6,7 C4.8954305,7 4,7.8954305 4,9 C4,10.1045695 4.8954305,11 6,11 Z" id="Oval-3-Copy-3" fill="#1AD0B7"/>
                                </g>
                                <g id="Group-3" stroke="none" stroke-width="1" fill="none" fill-rule="evenodd" transform="translate(240.000000, 0.000000)" stroke-linecap="round" stroke-linejoin="round">
                                    <circle id="Oval-4" stroke="#1AD0B7" stroke-width="2" fill="#FFFFFF" cx="11" cy="11" r="11"/>
                                    <path d="M6,13 C6,15.7614237 8.23857625,18 11,18 C13.7614237,18 16,15.7614237 16,13 L6,13 Z" id="Combined-Shape" stroke="#3B3B3B" stroke-width="2" fill="#FFFFFF"/>
                                    <path d="M7,6 L7,9" id="Line" stroke="#3B3B3B" stroke-width="2"/>
                                    <path d="M15,6 L15,9" id="Line-Copy-2" stroke="#3B3B3B" stroke-width="2"/>
                                </g>
                                <g id="Group" stroke="none" stroke-width="1" fill="none" fill-rule="evenodd" transform="translate(273.000000, 20.000000)" stroke-linecap="round" stroke-linejoin="round">
                                    <circle id="Oval-4-Copy-2" stroke="#1AD0B7" stroke-width="2" fill="#FFFFFF" cx="11" cy="11" r="11"/>
                                    <path d="M7,14.0080889 L7,14.0080889 C7.8008403,15.2040665 9.29231594,16.0080889 11,16.0080889 C12.7076841,16.0080889 14.1991597,15.2040665 15,14.0080889" id="Combined-Shape-Copy" stroke="#3B3B3B" stroke-width="2" fill="#FFFFFF" transform="translate(11.000000, 15.008089) scale(1, -1) translate(-11.000000, -15.008089) "/>
                                    <polyline id="Line-Copy-4" stroke="#3B3B3B" stroke-width="2" points="5 7 11 9.5 17 7"/>
                                    <path d="M7,8 L7,11" id="Line-Copy-6" stroke="#3B3B3B" stroke-width="2"/>
                                    <path d="M15,8 L15,11" id="Line-Copy-5" stroke="#3B3B3B" stroke-width="2"/>
                                </g>
                                <g id="Group-4" stroke="none" stroke-width="1" fill="none" fill-rule="evenodd" transform="translate(238.000000, 40.000000)" stroke-linecap="round" stroke-linejoin="round">
                                    <circle id="Oval-4-Copy-3" stroke="#1AD0B7" stroke-width="2" fill="#FFFFFF" cx="11" cy="11" r="11"/>
                                    <path d="M8,14 C9,16 13,16 14,14" id="Combined-Shape-Copy-4" stroke="#3B3B3B" stroke-width="2" fill="#FFFFFF"/>
                                    <path d="M5,9 C6,8 8,8 9,9" id="Line" stroke="#3B3B3B" stroke-width="2"/>
                                    <path d="M13,9 C14,8 16,8 17,9" id="Line-Copy-3" stroke="#3B3B3B" stroke-width="2"/>
                                </g>
                                <g id="Group-5-Copy" stroke="none" stroke-width="1" fill="none" fill-rule="evenodd" transform="translate(0.000000, 36.000000)">
                                    <rect id="Rectangle-6" fill="#FFFFFF" x="2" y="2" width="34" height="34"/>
                                    <g id="Group-7" transform="translate(12.000000, 8.000000)">
                                        <mask id="mask-4" fill="white">
                                            <use xlink:href="#path-3"/>
                                        </mask>
                                        <use id="Oval-7-Copy-3" stroke="#3B3B3B" stroke-width="2" fill="#FFFFFF" stroke-linecap="round" stroke-linejoin="round" xlink:href="#path-3"/>
                                        <path d="M2,5 C4.76142375,5 7,2.76142375 7,0 C7,-2.76142375 4.76142375,-5 2,-5 C-0.761423749,-5 -3,-2.76142375 -3,0 C-3,2.76142375 -0.761423749,5 2,5 Z" id="Oval-7-Copy-7" stroke="#3B3B3B" stroke-width="2" stroke-linecap="round" stroke-linejoin="round" mask="url(#mask-4)"/>
                                        <path d="M12,5 C14.7614237,5 17,2.76142375 17,0 C17,-2.76142375 14.7614237,-5 12,-5 C9.23857625,-5 7,-2.76142375 7,0 C7,2.76142375 9.23857625,5 12,5 Z" id="Oval-7-Copy-8" stroke="#3B3B3B" stroke-width="2" stroke-linecap="round" stroke-linejoin="round" mask="url(#mask-4)"/>
                                    </g>
                                    <g id="Group-9" transform="translate(8.000000, 22.000000)">
                                        <mask id="mask-6" fill="white">
                                            <use xlink:href="#path-5"/>
                                        </mask>
                                        <use id="Oval-7-Copy-2" fill="#FFFFFF" xlink:href="#path-5"/>
                                        <path d="M-2,8 L24,8" id="Line" stroke="#1AD0B7" stroke-width="2" stroke-linecap="square" stroke-linejoin="round" mask="url(#mask-6)"/>
                                        <path d="M-2,4 L24,4" id="Line-Copy-18" stroke="#1AD0B7" stroke-width="2" stroke-linecap="square" stroke-linejoin="round" mask="url(#mask-6)"/>
                                    </g>
                                    <path d="M8,36 L30,36 L30,33.0833333 C30,26.9621774 25.0751322,22 19,22 C12.9248678,22 8,26.9621774 8,33.0833333 C8,34.25 8,36 8,36 Z" id="Oval-7-Copy-9" stroke="#3B3B3B" stroke-width="2" stroke-linecap="round" stroke-linejoin="round"/>
                                    <path d="M0,0 L38,0 L38,44 L0,44 L0,0 Z M4,4 L4,34 L34,34 L34,4 L4,4 Z" id="Combined-Shape-Copy-2" stroke="#3B3B3B" stroke-width="2" fill="#FFFFFF" stroke-linecap="round" stroke-linejoin="round"/>
                                </g>
                                <g id="Group-5-Copy-2" stroke="none" stroke-width="1" fill="none" fill-rule="evenodd" transform="translate(8.000000, 62.000000)">
                                    <rect id="Rectangle-5" fill="#FFFFFF" x="2" y="2" width="34" height="34"/>
                                    <path d="M19,22 C22.8659932,22 26,18.8659932 26,15 C26,11.1340068 22.8659932,8 19,8 C15.1340068,8 12,11.1340068 12,15 C12,18.8659932 15.1340068,22 19,22 Z" id="Oval-7-Copy-3" stroke="#3B3B3B" stroke-width="2" fill="#FFFFFF" stroke-linecap="round" stroke-linejoin="round"/>
                                    <path d="M19,8 C20.6568542,8 22,6.65685425 22,5 C22,3.34314575 20.6568542,2 19,2 C17.3431458,2 16,3.34314575 16,5 C16,6.65685425 17.3431458,8 19,8 Z" id="Oval-7-Copy-4" stroke="#3B3B3B" stroke-width="2" fill="#FFFFFF" stroke-linecap="round" stroke-linejoin="round"/>
                                    <g id="Group-6" transform="translate(8.000000, 22.000000)">
                                        <mask id="mask-8" fill="white">
                                            <use xlink:href="#path-7"/>
                                        </mask>
                                        <use id="Oval-7-Copy-2" fill="#FFFFFF" xlink:href="#path-7"/>
                                        <path d="M11,6 C13.7614237,6 16,3.76142375 16,1 C16,-1.76142375 13.7614237,-4 11,-4 C8.23857625,-4 6,-1.76142375 6,1 C6,3.76142375 8.23857625,6 11,6 Z" id="Oval-7-Copy-5" stroke="#1AD0B7" stroke-width="2" stroke-linecap="round" stroke-linejoin="round" mask="url(#mask-8)"/>
                                    </g>
                                    <path d="M8,36 L30,36 L30,33.0833333 C30,26.9621774 25.0751322,22 19,22 C12.9248678,22 8,26.9621774 8,33.0833333 C8,34.25 8,36 8,36 Z" id="Oval-7-Copy-6" stroke="#3B3B3B" stroke-width="2" stroke-linecap="round" stroke-linejoin="round"/>
                                    <path d="M0,0 L38,0 L38,44 L0,44 L0,0 Z M4,4 L4,34 L34,34 L34,4 L4,4 Z" id="Combined-Shape-Copy-3" stroke="#3B3B3B" stroke-width="2" fill="#FFFFFF" stroke-linecap="round" stroke-linejoin="round"/>
                                </g>
                                <g id="Group-15" stroke="none" stroke-width="1" fill="none" fill-rule="evenodd" transform="translate(185.000000, 115.000000)">
                                    <path d="M6,6 L28.9941611,6 C31.7588096,6 34,8.23603796 34,10.9952534 L34,21.0047466 C34,23.7635489 36.2399344,26 39.0086136,26 L51,26" id="Path-2-Copy-7" stroke="#AAAAAA" stroke-width="2" stroke-linecap="round" stroke-linejoin="round"/>
                                    <path d="M6,12 C9.3137085,12 12,9.3137085 12,6 C12,2.6862915 9.3137085,0 6,0 C2.6862915,0 0,2.6862915 0,6 C0,9.3137085 2.6862915,12 6,12 Z" id="Oval-2-Copy-4" stroke="#AAAAAA" stroke-width="2" fill="#FFFFFF" stroke-linecap="round" stroke-linejoin="round"/>
                                    <path d="M6,8 C7.1045695,8 8,7.1045695 8,6 C8,4.8954305 7.1045695,4 6,4 C4.8954305,4 4,4.8954305 4,6 C4,7.1045695 4.8954305,8 6,8 Z" id="Oval-3-Copy-4" fill="#1AD0B7"/>
                                    <path d="M20,8 L24,8" id="Line-Copy-12" stroke="#FFFFFF" stroke-width="2" stroke-linecap="round" stroke-linejoin="round"/>
                                    <polygon id="Rectangle-7" stroke="#1AD0B7" stroke-width="2" fill="#1AD0B7" stroke-linecap="round" stroke-linejoin="round" points="57 21 75 21 82 26 75 31 57 31"/>
                                    <path d="M65,26 L70,26" id="Line" stroke="#FFFFFF" stroke-width="2" stroke-linecap="round" stroke-linejoin="round"/>
                                    <polygon id="Rectangle-7-Copy" stroke="#1AD0B7" stroke-width="2" fill="#1AD0B7" stroke-linecap="round" stroke-linejoin="round" points="41 41 67 41 74 46 67 51 41 51"/>
                                    <polygon id="Rectangle-7-Copy-2" stroke="#1AD0B7" stroke-width="2" fill="#1AD0B7" stroke-linecap="round" stroke-linejoin="round" points="84 36 106 36 113 41 106 46 84 46"/>
                                </g>
                                <path d="M234,161 L247,161" id="Line-Copy-10" stroke="#FFFFFF" stroke-width="2" fill="none" stroke-linecap="round" stroke-linejoin="round"/>
                                <path d="M277,156 L286,156" id="Line-Copy-11" stroke="#FFFFFF" stroke-width="2" fill="none" stroke-linecap="round" stroke-linejoin="round"/>
                                <path d="M205,79 L209,79" id="Line-Copy-7" stroke="#FFFFFF" stroke-width="2" fill="none" stroke-linecap="round" stroke-linejoin="round"/>
                                <path d="M219,96 L223,96" id="Line-Copy-9" stroke="none" fill="none"/>
                                <path d="M205,96 L209,96" id="Line-Copy-8" stroke="#FFFFFF" stroke-width="2" fill="none" stroke-linecap="round" stroke-linejoin="round"/>
                            </g>
                        </g>
                    </g>
                </g>
            </g>
        </g>
    </symbol>
    <symbol id="illustration2" viewBox="0 0 241 203">
        <defs>
            <rect id="path-1" x="0" y="0" width="320" height="210"/>
        </defs>
        <g id="Pages" stroke="none" stroke-width="1" fill="none" fill-rule="evenodd">
            <g id="Landing" transform="translate(-460.000000, -1262.000000)">
                <g id="Artifical-Intelligence-technologies-for-your-videos" transform="translate(0.000000, 1110.000000)">
                    <g id="Illustrator2" transform="translate(460.000000, 152.000000)">
                        <mask id="mask-2" fill="white">
                            <use xlink:href="#path-1"/>
                        </mask>
                        <g id="Mask" opacity="0.416893116"/>
                        <g id="Group-13" mask="url(#mask-2)">
                            <g transform="translate(1.000000, 1.000000)">
                                <path d="M6.00020994,81.0507229 C6.00007007,81.0338318 6,81.0169241 6,81 C6,77.6862915 8.6862915,75 12,75 C12.7030689,75 13.3778941,75.1209262 14.004811,75.3431142 C14.0016108,75.2291332 14,75.1147547 14,75 C14,68.372583 19.372583,63 26,63 C27.4751231,63 28.8880801,63.2661651 30.193465,63.7530894 C31.2578406,57.6442379 36.5865604,53 43,53 C50.1797017,53 56,58.8202983 56,66 C56,66.0038987 55.9999983,66.007797 55.9999949,66.0116949 C60.6603959,66.2301756 64.5262768,69.4868771 65.6616453,73.8458072 C66.6539086,73.3064132 67.791171,73 69,73 C72.8659932,73 76,76.1340068 76,80 C76,83.8659932 72.8659932,87 69,87 L3.5,87 C1.56700338,87 0,85.4329966 0,83.5 C0,81.5670034 1.56700338,80 3.5,80 C4.47945197,80 5.36493656,80.4023222 6.00020994,81.0507229 Z" id="Combined-Shape" stroke="#AAAAAA" stroke-width="2" fill="#FFFFFF" fill-rule="evenodd" stroke-linecap="round" stroke-linejoin="round"/>
                                <g id="Group-2-Copy" stroke="none" stroke-width="1" fill="none" fill-rule="evenodd" transform="translate(41.000000, 80.000000)">
                                    <rect id="Rectangle-Copy" fill="#FFFFFF" x="0" y="0" width="150" height="90"/>
                                    <path d="M0,81 L150.029997,81" id="Line" stroke="#AAAAAA" stroke-width="2" stroke-linecap="round" stroke-linejoin="round"/>
                                    <circle id="Oval" stroke="#000000" stroke-width="2" stroke-linecap="round" stroke-linejoin="round" cx="75" cy="41" r="16"/>
                                    <path d="M10,79 L10,83" id="Line" stroke="#1AD0B7" stroke-width="2" stroke-linecap="round" stroke-linejoin="round"/>
                                    <path d="M20,79 L20,83" id="Line-Copy" stroke="#1AD0B7" stroke-width="2" stroke-linecap="round" stroke-linejoin="round"/>
                                    <polygon id="Triangle" stroke="#3B3B3B" stroke-width="2" fill="#FFFFFF" stroke-linecap="round" stroke-linejoin="round" points="83 41 71 48 71 34"/>
                                    <rect id="Rectangle" stroke="#3B3B3B" stroke-width="2" stroke-linecap="round" stroke-linejoin="round" x="0" y="0" width="150" height="90"/>
                                </g>
                                <circle id="Oval-2" stroke="#3B3B3B" stroke-width="2" fill="#FFFFFF" fill-rule="evenodd" stroke-linecap="round" stroke-linejoin="round" cx="191" cy="80" r="16"/>
                                <path d="M191.00004,85.6700961 L185.723132,88.4443305 C185.235745,88.7005649 184.917823,88.4582725 185.009181,87.9256149 L186.016981,82.049692 L181.747873,77.8883403 C181.353569,77.5039887 181.485759,77.1267544 182.020578,77.0490407 L187.92034,76.1917551 L190.558794,70.8456638 C190.802487,70.3518871 191.202107,70.3610359 191.441286,70.8456638 L194.079739,76.1917551 L199.979501,77.0490407 C200.524416,77.1282215 200.639205,77.51111 200.252206,77.8883403 L195.983098,82.049692 L196.990898,87.9256149 C197.083981,88.468328 196.755304,88.6958174 196.276947,88.4443305 L191.00004,85.6700961 Z" id="Star-Copy" stroke="none" fill="#1AD0B7" fill-rule="evenodd"/>
                                <g id="Group-5" stroke="none" stroke-width="1" fill="none" fill-rule="evenodd" transform="translate(84.000000, 21.000000)" stroke-linecap="round" stroke-linejoin="round">
                                    <polygon id="Combined-Shape" stroke="#3B3B3B" stroke-width="2" fill="#FFFFFF" points="12.6851751 28.371095 8 29.8564065 6.9437299 25.0562701 2.14359354 24 3.62890498 19.3148249 0 16 3.62890498 12.6851751 2.14359354 8 6.9437299 6.9437299 8 2.14359354 12.6851751 3.62890498 16 0 19.3148249 3.62890498 24 2.14359354 25.0562701 6.9437299 29.8564065 8 28.371095 12.6851751 32 16 28.371095 19.3148249 29.8564065 24 25.0562701 25.0562701 24 29.8564065 19.3148249 28.371095 16 32"/>
                                    <polyline id="Path-16" stroke="#1AD0B7" stroke-width="2" points="12 17.5 15 20.5 21 12"/>
                                </g>
                                <path d="M100,63 L100,86" id="Line" stroke="#AAAAAA" stroke-width="2" fill="none" stroke-linecap="round" stroke-linejoin="round"/>
                                <g id="Group-9" stroke="none" stroke-width="1" fill="none" fill-rule="evenodd" transform="translate(116.000000, 190.500000) scale(1, -1) translate(-116.000000, -190.500000) translate(69.000000, 180.000000)" stroke-linecap="round" stroke-linejoin="round">
                                    <polygon id="Rectangle-4-Copy" stroke="#1AD0B7" stroke-width="2" fill="#FFFFFF" points="0 6 26 6 26 21 0 21 8 13"/>
                                    <polygon id="Rectangle-4-Copy-2" stroke="#1AD0B7" stroke-width="2" fill="#FFFFFF" transform="translate(81.000000, 13.500000) scale(-1, 1) translate(-81.000000, -13.500000) " points="68 6 94 6 94 21 68 21 76 13"/>
                                    <rect id="Rectangle-4" stroke="#1AD0B7" stroke-width="2" fill="#FFFFFF" x="20" y="0" width="54" height="15"/>
                                    <polygon id="Rectangle-4-Copy-3" stroke="#1AD0B7" stroke-width="2" fill="#FFFFFF" transform="translate(23.000000, 18.000000) scale(1, -1) translate(-23.000000, -18.000000) " points="26 15 26 21 20 21"/>
                                    <polygon id="Rectangle-4-Copy-4" stroke="#1AD0B7" stroke-width="2" fill="#FFFFFF" transform="translate(71.000000, 18.000000) scale(-1, -1) translate(-71.000000, -18.000000) " points="74 15 74 21 68 21"/>
                                </g>
                                <path d="M192,152.667637 C191.340255,152.77838 190.673427,152.862017 190,152.917691 L190,150 L192,150 L192,152.667637 Z" id="Combined-Shape" stroke="none" fill="#FFFFFF" fill-rule="nonzero"/>
                                <path d="M207,140 C202.5,145.5 196,150 188,150 L185,150" id="Path-23" stroke="#1AD0B7" stroke-width="2" fill="none" stroke-linecap="round" stroke-linejoin="round"/>
                                <polygon id="Path-22" stroke="#3B3B3B" stroke-width="2" fill="#FFFFFF" fill-rule="evenodd" stroke-linecap="round" stroke-linejoin="round" points="230 106 202 124 211 127 211 133 217 129 226 132"/>
                                <path d="M215.5,122.5 L230,106" id="Line" stroke="#3B3B3B" stroke-width="2" fill="#FFFFFF" fill-rule="evenodd" stroke-linecap="round" stroke-linejoin="round"/>
                                <g id="Group-3" stroke="none" stroke-width="1" fill="none" fill-rule="evenodd" transform="translate(10.000000, 98.000000)">
                                    <polygon id="Rectangle-2" fill="#FFFFFF" points="9 5 13 9 9 13 5 9"/>
                                    <path d="M9,15 C9,11.6862915 6.3137085,9 3,9" id="Oval-4" stroke="#3B3B3B" stroke-width="2" stroke-linecap="round" stroke-linejoin="round"/>
                                    <path d="M15,9 C11.6862915,9 9,11.6862915 9,15" id="Oval-4-Copy" stroke="#3B3B3B" stroke-width="2" stroke-linecap="round" stroke-linejoin="round"/>
                                    <path d="M3,9 C6.3137085,9 9,6.3137085 9,3" id="Oval-4-Copy-3" stroke="#3B3B3B" stroke-width="2" stroke-linecap="round" stroke-linejoin="round"/>
                                    <path d="M9,3 C9,6.3137085 11.6862915,9 15,9 L15,9" id="Oval-4-Copy-2" stroke="#3B3B3B" stroke-width="2" stroke-linecap="round" stroke-linejoin="round"/>
                                    <path d="M15,9 L18,9" id="Line" stroke="#3B3B3B" stroke-width="2" stroke-linecap="round" stroke-linejoin="round"/>
                                    <path d="M0,9 L3,9" id="Line-Copy-2" stroke="#3B3B3B" stroke-width="2" stroke-linecap="round" stroke-linejoin="round"/>
                                    <path d="M9,15 L9,18" id="Line-Copy-10" stroke="#3B3B3B" stroke-width="2" stroke-linecap="round" stroke-linejoin="round"/>
                                    <path d="M9,3 L9,0" id="Line-Copy-3" stroke="#3B3B3B" stroke-width="2" stroke-linecap="round" stroke-linejoin="round"/>
                                </g>
                                <g id="Group-3-Copy" stroke="none" stroke-width="1" fill="none" fill-rule="evenodd" transform="translate(141.000000, 0.000000)">
                                    <polygon id="Rectangle-2" fill="#FFFFFF" points="12 6.66666667 17.3333333 12 12 17.3333333 6.66666667 12"/>
                                    <path d="M12,20 C12,15.581722 8.418278,12 4,12" id="Oval-4" stroke="#1AD0B7" stroke-width="2" stroke-linecap="round" stroke-linejoin="round"/>
                                    <path d="M20,12 C15.581722,12 12,15.581722 12,20" id="Oval-4-Copy" stroke="#1AD0B7" stroke-width="2" stroke-linecap="round" stroke-linejoin="round"/>
                                    <path d="M4,12 C8.418278,12 12,8.418278 12,4" id="Oval-4-Copy-3" stroke="#1AD0B7" stroke-width="2" stroke-linecap="round" stroke-linejoin="round"/>
                                    <path d="M12,4 C12,8.418278 15.581722,12 20,12 L20,12" id="Oval-4-Copy-2" stroke="#1AD0B7" stroke-width="2" stroke-linecap="round" stroke-linejoin="round"/>
                                    <path d="M20,12 L24,12" id="Line" stroke="#1AD0B7" stroke-width="2" stroke-linecap="round" stroke-linejoin="round"/>
                                    <path d="M0,12 L4,12" id="Line-Copy-2" stroke="#1AD0B7" stroke-width="2" stroke-linecap="round" stroke-linejoin="round"/>
                                    <path d="M12,20 L12,24" id="Line-Copy-10" stroke="#1AD0B7" stroke-width="2" stroke-linecap="round" stroke-linejoin="round"/>
                                    <path d="M12,4 L12,0" id="Line-Copy-3" stroke="#1AD0B7" stroke-width="2" stroke-linecap="round" stroke-linejoin="round"/>
                                </g>
                                <g id="Group-2" stroke="none" stroke-width="1" fill="none" fill-rule="evenodd" transform="translate(223.000000, 148.000000)">
                                    <polygon id="Rectangle-2" fill="#FFFFFF" points="8 3.42857143 12.5714286 8 8 12.5714286 3.42857143 8"/>
                                    <path d="M8,14.8571429 C8,11.0700474 4.92995257,8 1.14285714,8" id="Oval-4" stroke="#1AD0B7" stroke-width="2" stroke-linecap="round" stroke-linejoin="round"/>
                                    <path d="M14.8571429,8 C11.0700474,8 8,11.0700474 8,14.8571429" id="Oval-4-Copy" stroke="#1AD0B7" stroke-width="2" stroke-linecap="round" stroke-linejoin="round"/>
                                    <path d="M1.14285714,8 C4.92995257,8 8,4.92995257 8,1.14285714" id="Oval-4-Copy-3" stroke="#1AD0B7" stroke-width="2" stroke-linecap="round" stroke-linejoin="round"/>
                                    <path d="M8,1.14285714 C8,4.92995257 11.0700474,8 14.8571429,8 L14.8571429,8" id="Oval-4-Copy-2" stroke="#1AD0B7" stroke-width="2" stroke-linecap="round" stroke-linejoin="round"/>
                                    <path d="M14.8571429,8 L16,8" id="Line" stroke="#1AD0B7" stroke-width="2" stroke-linecap="round" stroke-linejoin="round"/>
                                    <path d="M0,8 L1.14285714,8" id="Line-Copy-2" stroke="#1AD0B7" stroke-width="2" stroke-linecap="round" stroke-linejoin="round"/>
                                    <path d="M8,14.8571429 L8,16" id="Line-Copy-10" stroke="#1AD0B7" stroke-width="2" stroke-linecap="round" stroke-linejoin="round"/>
                                    <path d="M8,1.14285714 L8,0" id="Line-Copy-3" stroke="#1AD0B7" stroke-width="2" stroke-linecap="round" stroke-linejoin="round"/>
                                </g>
                                <g id="Group-4-Copy" stroke="none" stroke-width="1" fill="none" fill-rule="evenodd" transform="translate(129.000000, 45.000000)">
                                    <polygon id="Rectangle-2" fill="#FFFFFF" points="5 3 7 5 5 7 3 5"/>
                                    <path d="M5,8 C5,6.34314575 3.65685425,5 2,5" id="Oval-4" stroke="#3B3B3B" stroke-width="2" stroke-linecap="round" stroke-linejoin="round"/>
                                    <path d="M8,5 C6.34314575,5 5,6.34314575 5,8" id="Oval-4-Copy" stroke="#3B3B3B" stroke-width="2" stroke-linecap="round" stroke-linejoin="round"/>
                                    <path d="M2,5 C3.65685425,5 5,3.65685425 5,2" id="Oval-4-Copy-3" stroke="#3B3B3B" stroke-width="2" stroke-linecap="round" stroke-linejoin="round"/>
                                    <path d="M0,5 L2,5" id="Line-Copy-2" stroke="#3B3B3B" stroke-width="2" stroke-linecap="round" stroke-linejoin="round"/>
                                    <path d="M8,5 L10,5" id="Line-Copy-21" stroke="#3B3B3B" stroke-width="2" stroke-linecap="round" stroke-linejoin="round"/>
                                    <path d="M5,8 L5,10" id="Line-Copy-22" stroke="#3B3B3B" stroke-width="2" stroke-linecap="round" stroke-linejoin="round"/>
                                    <path d="M5,0 L5,2" id="Line-Copy-28" stroke="#3B3B3B" stroke-width="2" stroke-linecap="round" stroke-linejoin="round"/>
                                    <path d="M5,2 C5,3.65685425 6.34314575,5 8,5" id="Oval-4-Copy-2" stroke="#3B3B3B" stroke-width="2" stroke-linecap="round" stroke-linejoin="round"/>
                                </g>
                                <circle id="Oval-9" stroke="none" fill="#3B3B3B" fill-rule="evenodd" cx="141" cy="65" r="2"/>
                                <circle id="Oval-9-Copy-2" stroke="none" fill="#3B3B3B" fill-rule="evenodd" cx="28" cy="121" r="2"/>
                                <circle id="Oval-9-Copy" stroke="none" fill="#1AD0B7" fill-rule="evenodd" cx="165" cy="54" r="2"/>
                            </g>
                        </g>
                    </g>
                </g>
            </g>
        </g>
    </symbol>
    <symbol id="illustration3" viewBox="0 0 284 141">
        <defs>
            <rect id="path-1" x="0" y="0" width="320" height="210"/>
        </defs>
        <g id="Pages" stroke="none" stroke-width="1" fill="none" fill-rule="evenodd">
            <g id="Landing" transform="translate(-843.000000, -1314.000000)">
                <g id="Artifical-Intelligence-technologies-for-your-videos" transform="translate(0.000000, 1110.000000)">
                    <g id="Illustrator3" transform="translate(842.000000, 152.000000)">
                        <mask id="mask-2" fill="white">
                            <use xlink:href="#path-1"/>
                        </mask>
                        <g id="Mask" opacity="0.416893116"/>
                        <g id="Group-14" mask="url(#mask-2)">
                            <g transform="translate(2.000000, 53.000000)">
                                <g id="Group-2-Copy-2" stroke="none" stroke-width="1" fill="none" fill-rule="evenodd" transform="translate(61.000000, 28.000000)">
                                    <rect id="Rectangle-Copy" fill="#FFFFFF" x="0" y="0" width="150" height="90"/>
                                    <path d="M0,81 L150.029997,81" id="Line" stroke="#AAAAAA" stroke-width="2" stroke-linecap="round" stroke-linejoin="round"/>
                                    <circle id="Oval" stroke="#000000" stroke-width="2" stroke-linecap="round" stroke-linejoin="round" cx="75" cy="41" r="16"/>
                                    <path d="M10,79 L10,83" id="Line" stroke="#1AD0B7" stroke-width="2" stroke-linecap="round" stroke-linejoin="round"/>
                                    <path d="M20,79 L20,83" id="Line-Copy" stroke="#1AD0B7" stroke-width="2" stroke-linecap="round" stroke-linejoin="round"/>
                                    <polygon id="Triangle" stroke="#3B3B3B" stroke-width="2" fill="#FFFFFF" stroke-linecap="round" stroke-linejoin="round" points="83 41 71 48 71 34"/>
                                    <rect id="Rectangle" stroke="#3B3B3B" stroke-width="2" stroke-linecap="round" stroke-linejoin="round" x="0" y="0" width="150" height="90"/>
                                </g>
                                <path d="M51.7014162,46.8343497 C52.5244475,47.2414602 53.3779931,47.5962117 54.2577007,47.8942516 L57.5,56 L64.5,56 L67.7422993,47.8942516 C68.6220069,47.5962117 69.4755525,47.2414602 70.2985838,46.8343497 L78.3241161,50.2738636 L83.2738636,45.3241161 L79.8343497,37.2985838 C80.2414602,36.4755525 80.5962117,35.6220069 80.8942516,34.7422993 L89,31.5 L89,24.5 L80.8942516,21.2577007 C80.5962117,20.3779931 80.2414602,19.5244475 79.8343497,18.7014162 L83.2738636,10.6758839 L78.3241161,5.72613639 L70.2985838,9.16565027 C69.4755525,8.75853981 68.6220069,8.40378831 67.7422993,8.10574836 L64.5,0 L57.5,0 L54.2577007,8.10574836 C53.3779931,8.40378831 52.5244475,8.75853981 51.7014162,9.16565027 L43.6758839,5.72613639 L38.7261364,10.6758839 L42.1656503,18.7014162 C41.7585398,19.5244475 41.4037883,20.3779931 41.1057484,21.2577007 L33,24.5 L33,31.5 L41.1057484,34.7422993 C41.4037883,35.6220069 41.7585398,36.4755525 42.1656503,37.2985838 L38.7261364,45.3241161 L43.6758839,50.2738636 L51.7014162,46.8343497 Z" id="Combined-Shape-Copy-5" stroke="#3B3B3B" stroke-width="2" fill="#FFFFFF" fill-rule="evenodd" stroke-linecap="round" stroke-linejoin="round"/>
                                <circle id="Oval-3" stroke="#3B3B3B" stroke-width="2" fill="#FFFFFF" fill-rule="evenodd" stroke-linecap="round" stroke-linejoin="round" cx="61" cy="28" r="5"/>
                                <circle id="Oval-3-Copy-7" stroke="#1AD0B7" stroke-width="2" fill="none" stroke-linecap="round" stroke-linejoin="round" cx="61" cy="28" r="11"/>
                                <path d="M38.0252847,67.5652881 L39.0710678,69.6568542 L37.6568542,71.0710678 L35.5652881,70.0252847 C35.0025827,70.3589677 34.3891197,70.6160676 33.7392583,70.782225 L33,73 L31,73 L30.2607417,70.782225 C29.6108803,70.6160676 28.9974173,70.3589677 28.4347119,70.0252847 L26.3431458,71.0710678 L24.9289322,69.6568542 L25.9747153,67.5652881 C25.6410323,67.0025827 25.3839324,66.3891197 25.217775,65.7392583 L23,65 L23,63 L25.217775,62.2607417 C25.3839324,61.6108803 25.6410323,60.9974173 25.9747153,60.4347119 L24.9289322,58.3431458 L26.3431458,56.9289322 L28.4347119,57.9747153 C28.9974173,57.6410323 29.6108803,57.3839324 30.2607417,57.217775 L31,55 L33,55 L33.7392583,57.217775 C34.3891197,57.3839324 35.0025827,57.6410323 35.5652881,57.9747153 L37.6568542,56.9289322 L39.0710678,58.3431458 L38.0252847,60.4347119 C38.3589677,60.9974173 38.6160676,61.6108803 38.782225,62.2607417 L41,63 L41,65 L38.782225,65.7392583 C38.6160676,66.3891197 38.3589677,67.0025827 38.0252847,67.5652881 Z M32,66 C33.1045695,66 34,65.1045695 34,64 C34,62.8954305 33.1045695,62 32,62 C30.8954305,62 30,62.8954305 30,64 C30,65.1045695 30.8954305,66 32,66 Z" id="Combined-Shape-Copy-8" stroke="#3B3B3B" stroke-width="2" fill="#FFFFFF" fill-rule="evenodd" stroke-linecap="round" stroke-linejoin="round"/>
                                <path d="M8.6828004,48.7445195 L4.95666036,50.3414367 L2.65856333,48.0433396 L4.25548048,44.3171996 C4.06646491,43.935078 3.90175886,43.5387889 3.76338317,43.1303533 L0,41.625 L0,38.375 L3.76338317,36.8696467 C3.90175886,36.4612111 4.06646491,36.064922 4.25548048,35.6828004 L2.65856333,31.9566604 L4.95666036,29.6585633 L8.6828004,31.2554805 C9.06492204,31.0664649 9.4612111,30.9017589 9.86964673,30.7633832 L11.375,27 L14.625,27 L16.1303533,30.7633832 C16.5387889,30.9017589 16.935078,31.0664649 17.3171996,31.2554805 L21.0433396,29.6585633 L23.3414367,31.9566604 L21.7445195,35.6828004 C21.9335351,36.064922 22.0982411,36.4612111 22.2366168,36.8696467 L26,38.375 L26,41.625 L22.2366168,43.1303533 C22.0982411,43.5387889 21.9335351,43.935078 21.7445195,44.3171996 L23.3414367,48.0433396 L21.0433396,50.3414367 L17.3171996,48.7445195 C16.935078,48.9335351 16.5387889,49.0982411 16.1303533,49.2366168 L14.625,53 L11.375,53 L9.86964673,49.2366168 C9.4612111,49.0982411 9.06492204,48.9335351 8.6828004,48.7445195 Z M13,43.25 C14.7949254,43.25 16.25,41.7949254 16.25,40 C16.25,38.2050746 14.7949254,36.75 13,36.75 C11.2050746,36.75 9.75,38.2050746 9.75,40 C9.75,41.7949254 11.2050746,43.25 13,43.25 Z" id="Combined-Shape-Copy-9" stroke="#3B3B3B" stroke-width="2" fill="#FFFFFF" fill-rule="evenodd" stroke-linecap="round" stroke-linejoin="round"/>
                                <g id="Group-10" stroke="none" stroke-width="1" fill="none" fill-rule="evenodd" transform="translate(184.000000, 77.000000)" stroke-linecap="round" stroke-linejoin="round">
                                    <polygon id="Rectangle-10-Copy" stroke="#3B3B3B" stroke-width="2" fill="#FFFFFF" points="52 30 92 30 92 62 52 62"/>
                                    <path d="M58,38 L92.0147027,38" id="Line" stroke="#1AD0B7" stroke-width="2"/>
                                    <path d="M58,46 L92.0147027,46" id="Line-Copy-14" stroke="#1AD0B7" stroke-width="2"/>
                                    <path d="M58,54 L92.0147027,54" id="Line-Copy-15" stroke="#1AD0B7" stroke-width="2"/>
                                    <path d="M69,5.32907052e-14 L77,5.32907052e-14 L93,30 L98,30 L98,62 L69,62 L40,62 L40,30 L45,30 L61,5.32907052e-14 L69,5.32907052e-14 Z" id="Combined-Shape" stroke="#3B3B3B" stroke-width="2"/>
                                    <path d="M71,0 L87,30 M92,30 L92,62" id="Rectangle-9-Copy-2" stroke="#AAAAAA" stroke-width="2"/>
                                    <path d="M66,6 C67.6568542,6 69,7.34314575 69,9 C69,10.6568542 67.6568542,12 66,12 L28,12 L28,6 L66,6 Z" id="Combined-Shape" stroke="#3B3B3B" stroke-width="2" fill="#FFFFFF"/>
                                    <path d="M29,5.32907052e-14 L37,5.32907052e-14 L53,30 L58,30 L58,62 L29,62 L0,62 L0,30 L5,30 L21,5.32907052e-14 L29,5.32907052e-14 Z" id="Combined-Shape" stroke="#3B3B3B" stroke-width="2" fill="#FFFFFF"/>
                                    <path d="M31,0 L47,30" id="Rectangle-9" stroke="#AAAAAA" stroke-width="2" fill="#FFFFFF"/>
                                    <path d="M58,30 L58,62" id="Path" stroke="#AAAAAA" stroke-width="2" fill="#FFFFFF"/>
                                    <polygon id="Path-Copy" stroke="#3B3B3B" stroke-width="2" points="98 62 98 30 47 30 52 30 52 62"/>
                                    <circle id="Oval-5-Copy" stroke="#3B3B3B" stroke-width="2" fill="#FFFFFF" cx="26" cy="9" r="3"/>
                                </g>
                                <path d="M251,77 L258,77" id="Line-Copy-13" stroke="#3B3B3B" stroke-width="2" fill="none" stroke-linecap="round" stroke-linejoin="round"/>
                                <polygon id="Rectangle-12" stroke="#3B3B3B" stroke-width="2" fill="#FFFFFF" fill-rule="evenodd" stroke-linecap="round" stroke-linejoin="round" transform="translate(107.000000, 134.000000) rotate(-90.000000) translate(-107.000000, -134.000000) " points="105 116 109 116 111 122 109 128 109 152 105 152 105 128 103 122"/>
                                <path d="M136,118 L146,118 L146,119 L144,122 L146,126 L146,144.998027 C146,147.760541 143.755805,150 141,150 L141,150 C138.238576,150 136,147.76369 136,144.998027 L136,126 L138,122 L136,119 L136,118 Z" id="Rectangle-11" stroke="#3B3B3B" stroke-width="2" fill="#1AD0B7" fill-rule="evenodd" stroke-linecap="round" stroke-linejoin="round" transform="translate(141.000000, 134.000000) rotate(-90.000000) translate(-141.000000, -134.000000) "/>
                                <path d="M211,77 L218,77" id="Line" stroke="#3B3B3B" stroke-width="2" fill="none" stroke-linecap="round" stroke-linejoin="round"/>
                            </g>
                        </g>
                    </g>
                </g>
            </g>
        </g>
    </symbol>
    <symbol id="video" viewBox="0 0 150 100">
        <g fill="none" stroke-width="2" stroke-linecap="round" stroke-linejoin="round">
            <rect width="150" height="100"/>
            <path class="st0" stroke="#808080" d="M149,99H1 M1,78h148H1z"/>
            <path class="st1" stroke="#808080" d="M125,36v23 M25,42v16V42z"/>
            <path class="st2" stroke="#FFFFFF" d="M80,82v13 M7,82v13V82z"/>
            <path class="st0" stroke="#808080" d="M65,82v13"/>
            <path class="st2" stroke="#FFFFFF" d="M43,82v13 M142,82v13V82z"/>
            <path class="st3" stroke="#1AD0B7" d="M80,72v-1c0-2.2,1.8-4,4-4h36.9c1.3,0,2.6-0.7,3.3-1.8L125,64l0.8,1.2c0.7,1.1,2,1.8,3.3,1.8h8.9  c2.2,0,4,1.8,4,4v1 M7,72v-1c0-2.2,1.8-4,4-4h9.9c1.3,0,2.6-0.7,3.3-1.8L25,64l0.8,1.2c0.7,1.1,2,1.8,3.3,1.8H39c2.2,0,4,1.8,4,4v1"/>
            <path class="st0" stroke="#808080" d="M1,7h48v35H1V7z"/>
            <path class="st2" stroke="#FFFFFF" d="M45,44L28,27l-6.7,6.3"/>
            <path class="st2" stroke="#FFFFFF" d="M26,38L9,21l-8,8"/>
            <path class="st2" stroke="#FFFFFF" d="M1,11h48v27H1V11z"/>
            <path class="st2" stroke="#FFFFFF" d="M1,11h48v27H1V11z"/>
            <path class="st2" stroke="#FFFFFF" d="M40,23c1.7,0,3-1.3,3-3s-1.3-3-3-3s-3,1.3-3,3S38.3,23,40,23z"/>
            <path class="st0" stroke="#808080" d="M101,1h48v35h-48V1z"/>
            <path class="st2" stroke="#FFFFFF" d="M101,5h48v27h-48V5z"/>
            <path class="st2" stroke="#FFFFFF" d="M149,28c-1.3,0-2.4-0.8-2.8-2h-0.3c-0.4,1.2-1.5,2-2.8,2s-2.4-0.8-2.8-2H140c-0.4,1.2-1.5,2-2.8,2  s-2.4-0.8-2.8-2h-0.3c-0.4,1.2-1.5,2-2.8,2s-2.4-0.8-2.8-2h-0.3c-0.4,1.2-1.5,2-2.8,2s-2.4-0.8-2.8-2h-0.3c-0.4,1.2-1.5,2-2.8,2  s-2.4-0.8-2.8-2h-0.3c-0.4,1.2-1.5,2-2.8,2s-2.4-0.8-2.8-2h-0.3c-0.4,1.2-1.5,2-2.8,2s-2.4-0.8-2.8-2h-0.3c-0.4,1.2-1.5,2-2.8,2"/>
            <path class="st2" stroke="#FFFFFF" d="M122,11l3,13l6-6L122,11z"/>
            <path class="st4" stroke="#000000" d="M41,21h48v35H41V21z"/>
            <path class="st0" stroke="#808080" d="M41,21h48v35H41V21z"/>
            <path class="st0" stroke="#808080" d="M83,27L47,50 M47,27l36,23L47,27z"/>
            <path class="st1" stroke="#808080" d="M65,56v16"/>
        </g>
    </symbol>
    <symbol id="visual" viewBox="0 0 150 100">
        <g fill="none" stroke-width="2" stroke-linecap="round" stroke-linejoin="round">

            <rect width="150" height="100"/>
            <path class="st0" stroke="#808080" d="M59,36h32v32H59V36z"/>
            <path class="st0" stroke="#808080" d="M59,36h32v36H59V36z"/>
            <path class="st1" stroke="#1AD0B7" d="M75,62c5.5,0,10-4.5,10-10s-4.5-10-10-10s-10,4.5-10,10S69.5,62,75,62z"/>
            <path class="st2" stroke="#1AD0B7" d="M73.5,49l4.5,3l-4.5,3V49z"/>
            <path class="st0" stroke="#808080" d="M125,73h-4v4 M145,73h4v4 M145,99h4v-4 M125,99h-4v-4"/>
            <path class="st0" stroke="#808080" d="M23,28V1H1v27H23z"/>
            <path class="st0" stroke="#808080" d="M23,23V1H1v22H23z"/>
            <path class="st0" stroke="#808080" d="M18,21v2H6v-2c0-3.3,2.7-6,6-6C15.3,15,18,17.7,18,21z M12,15c2.2,0,4-1.8,4-4c0-2.2-1.8-4-4-4  c-2.2,0-4,1.8-4,4C8,13.2,9.8,15,12,15z"/>
            <path class="st3" stroke="#000000" d="M37,41V14H15v27H37z"/>
            <path class="st4" stroke="#FFFFFF" d="M37,41V14H15v27H37z"/>
            <path class="st4" stroke="#FFFFFF" d="M37,36V14H15v22H37z"/>
            <path class="st4" stroke="#FFFFFF" d="M32,34v2H20v-2c0-3.3,2.7-6,6-6S32,30.7,32,34z M26,28c2.2,0,4-1.8,4-4s-1.8-4-4-4s-4,1.8-4,4S23.8,28,26,28z"/>
            <path class="st4" stroke="#FFFFFF" d="M128,82v-2h7v14h-2h4h-2V80h7v2"/>
            <path class="st4" stroke="#FFFFFF" d="M142,33c3.9,0,7-3.1,7-7s-3.1-7-7-7s-7,3.1-7,7S138.1,33,142,33z"/>
            <path class="st4" stroke="#FFFFFF" d="M117,17l10,8l-4,11h-12l-4-11L117,17z"/>
            <path class="st0" stroke="#808080" d="M1,74v25 M125,1h12v12h-12V1z M46,34l4,4L46,34z M36,78l14-9L36,78z M112,75l-12-6L112,75z M100,40l2-1L100,40z  "/>
            <path class="st4" stroke="#FFFFFF" d="M1,70h11v14H1V70z"/>
            <path class="st5" stroke="#FFFFFF" d="M12,74h11v14H12V74z"/>
        </g>
    </symbol>
    <symbol viewBox="0 0 150 100" id="faces">
        <g fill="none" stroke-width="2" stroke-linecap="round" stroke-linejoin="round">
            <rect width="150" height="100"/>
            <path class="st0" stroke="#1AD0B7" d="M99,4h-4v4 M129,4h4v4 M129,26h4v-4 M99,26h-4v-4"/>
            <path class="st1" stroke="#808080" d="M31,36v4H7v-4c0-6.6,5.4-12,12-12S31,29.4,31,36z M19,24c4.4,0,8-3.6,8-8s-3.6-8-8-8s-8,3.6-8,8S14.6,24,19,24z   M65,36v4H41v-4c0-6.6,5.4-12,12-12S65,29.4,65,36z M53,24c4.4,0,8-3.6,8-8s-3.6-8-8-8s-8,3.6-8,8S48.6,24,53,24z"/>
            <path class="st2" stroke="#FFFFFF" d="M48,88v4H24v-4c0-6.6,5.4-12,12-12S48,81.4,48,88z M36,76c4.4,0,8-3.6,8-8s-3.6-8-8-8s-8,3.6-8,8S31.6,76,36,76  z"/>
            <path class="st2" stroke="#FFFFFF" d="M126,36v4h-24v-4c0-6.6,5.4-12,12-12S126,29.4,126,36z M114,24c4.4,0,8-3.6,8-8s-3.6-8-8-8s-8,3.6-8,8  S109.6,24,114,24z"/>
            <path class="st3" d="M50,93.5l-4.1,2.2l0.8-4.6l-3.3-3.2l4.6-0.7L50,83l2.1,4.2l4.6,0.7l-3.3,3.2l0.8,4.6L50,93.5z"/>
            <path class="st0" stroke="#1AD0B7" d="M50,93.5l-4.1,2.2l0.8-4.6l-3.3-3.2l4.6-0.7L50,83l2.1,4.2l4.6,0.7l-3.3,3.2l0.8,4.6L50,93.5z"/>
            <path class="st1" stroke="#808080" d="M98,86h32 M98,76h32H98z M98,66h32H98z"/>
            <path class="st4" stroke="#1AD0B7" d="M105,69c1.7,0,3-1.3,3-3s-1.3-3-3-3s-3,1.3-3,3S103.3,69,105,69z"/>
            <path class="st4" stroke="#1AD0B7" d="M123,79c1.7,0,3-1.3,3-3s-1.3-3-3-3s-3,1.3-3,3S121.3,79,123,79z"/>
            <path class="st4" stroke="#1AD0B7" d="M114,89c1.7,0,3-1.3,3-3s-1.3-3-3-3s-3,1.3-3,3S112.3,89,114,89z"/>
            <path class="st5" stroke-dasharray="4,4" stroke="#808080" d="M75,8v88"/>
            <path class="st5" stroke-dasharray="4,4" stroke="#808080" d="M1,50h148"/>
            <path class="st1" stroke="#808080" d="M75,99v-3 M75,4V1V4z"/>
            <path class="st0" stroke="#1AD0B7" d="M33,3.5C33,2,34,1,36,1s3,1,3,2.5c0,2.5-3,3-3,4V9"/>
            <path class="st6" fill="#1AD0B7" d="M36,13c0.6,0,1-0.4,1-1s-0.4-1-1-1s-1,0.4-1,1S35.4,13,36,13z"/>
        </g>
    </symbol>
    <symbol viewBox="0 0 150 100" id="audioA">
        <g fill="none" stroke-width="2" stroke-linecap="round" stroke-linejoin="round">
            <rect width="150" height="100"/>
            <path class="st0" stroke="#808080" d="M59,36h32v32H59V36z"/>
            <path class="st0" stroke="#808080" d="M59,36h32v36H59V36z"/>
            <path class="st1" stroke="#1AD0B7" d="M65,56h4l7,6V42l-7,6h-4V56z"/>
            <path class="st0" stroke="#808080" d="M100,40l8-4 M46,34l4,4L46,34z M37,74l12-7L37,74z M105,68l-5-2L105,68z"/>
            <path class="st2" stroke="#FFFFFF" d="M80.1,54.1c0.5-0.5,0.9-1.3,0.9-2.1c0-0.8-0.3-1.6-0.9-2.1 M82.9,47.1c1.3,1.3,2.1,3,2.1,4.9s-0.8,3.7-2.1,4.9"/>
            <path class="st3" stroke="#808080" d="M138,99c6.1,0,11-4.9,11-11s-4.9-11-11-11s-11,4.9-11,11S131.9,99,138,99z"/>
            <path class="st0" stroke="#808080" d="M141,90h-6c-1.1,0-2,0.9-2,2s0.9,2,2,2h6c1.1,0,2-0.9,2-2S142.1,90,141,90z"/>
            <path class="st0" stroke="#808080" d="M143,84l-2,2 M133,84l2,2L133,84z"/>
            <path class="st3" stroke="#808080" d="M141,68c4.4,0,8-3.6,8-8s-3.6-8-8-8s-8,3.6-8,8S136.6,68,141,68z"/>
            <path class="st0" stroke="#808080" d="M144,63.5c-0.5-1-1.5-1.5-3-1.5s-2.5,0.5-3,1.5 M138,57.1V59 M144,57v2"/>
            <path class="st4" stroke="#000000" d="M123,86c6.1,0,11-4.9,11-11s-4.9-11-11-11s-11,4.9-11,11S116.9,86,123,86z"/>
            <path class="st2" stroke="#FFFFFF" d="M123,86c6.1,0,11-4.9,11-11s-4.9-11-11-11s-11,4.9-11,11S116.9,86,123,86z"/>
            <path class="st2" stroke="#FFFFFF" d="M127.6,78c-0.8,1.8-2.5,3-4.6,3s-3.8-1.2-4.6-3 M119,71v3 M127,71v3"/>
            <path class="st0" stroke="#808080" d="M124,5h12 M109,15h31l9,6l-9,6h-31V15z M118,1h21l6,4l-6,4h-21V1z"/>
            <path class="st2" stroke="#FFFFFF" d="M1,13h4.5L7,17l4-16l4,24l4-15l3,10l3-7h4 M116,21h12H116z M132,21h4H132z"/>
            <path class="st0" stroke="#808080" d="M44,22.5c0,1.4-1.6,2.5-3.5,2.5S37,23.9,37,22.5s1.6-2.5,3.5-2.5S44,21.1,44,22.5z M44,22.5V5v1c0,3,6,5,6,9   M1,74v25"/>
            <path class="st2" stroke="#FFFFFF" d="M1,70h11v14H1V70z"/>
            <path class="st5" stroke="#FFFFFF" d="M12,74h11v14H12V74z"/>
        </g>
    </symbol>
    <symbol viewBox="0 0 150 100" id="speech">
        <g fill="none" stroke-width="2" stroke-linecap="round" stroke-linejoin="round">
            <rect width="150" height="100"/>
            <path class="st0" stroke="#1AD0B7" d="M76.2,72.7c6-6,9.7-14.2,9.7-23.3S82.2,32,76.2,26 M69.1,33.1c4.2,4.2,6.7,9.9,6.7,16.3s-2.6,12.1-6.7,16.3   M62.1,58.5c2.4-2.4,3.8-5.6,3.8-9.2c0-3.6-1.5-6.8-3.8-9.2 M55,47.2c0.5,0.5,0.9,1.3,0.9,2.1c0,0.8-0.3,1.6-0.9,2.1"/>
            <path class="st1" stroke="#FFFFFF" d="M37,71v6H1v-6c0-9.9,8.1-18,18-18C28.9,53,37,61.1,37,71z M19,53c6.6,0,12-5.4,12-12s-5.4-12-12-12S7,34.4,7,41  S12.4,53,19,53z"/>
            <path class="st1" stroke="#FFFFFF" d="M115,63h10 M105,21h34v10h10l-10-10l10,10v46h-44V21z M115,45h24H115z M115,51h15H115z M115,57h20H115z"/>
            <path class="st0" stroke="#1AD0B7" d="M115,35h17"/>
        </g>
    </symbol>
    <symbol viewBox="0 0 150 100" id="voice">
        <g fill="none" stroke-width="2" stroke-linecap="round" stroke-linejoin="round">
            <rect width="150" height="100"/>
            <path class="st0" stroke="#1AD0B7" d="M134,23V1h-22v22h11v3v-3H134z"/>
            <path class="st0" stroke="#1AD0B7" d="M129,21v2h-12v-2c0-3.3,2.7-6,6-6S129,17.7,129,21z M123,15c2.2,0,4-1.8,4-4c0-2.2-1.8-4-4-4s-4,1.8-4,4  C119,13.2,120.8,15,123,15z"/>
            <path class="st1" stroke="#FFFFFF" d="M32,77v22H10V77h11v-3v3H32z"/>
            <path class="st1" stroke="#FFFFFF" d="M27,97v2H15v-2c0-3.3,2.7-6,6-6S27,93.7,27,97z M21,91c2.2,0,4-1.8,4-4s-1.8-4-4-4s-4,1.8-4,4S18.8,91,21,91z"/>
            <path class="st0" stroke="#1AD0B7" d="M15,47v6 M123,36v28V36z M111,44v12V44z M99,32v36V32z M87,14v71V14z M75,39v22V39z M63,43v14V43z M51,48v4V48z   M39,42v16V42z M27,44v12V44z"/>
            <path class="st1" stroke="#FFFFFF" d="M141,49v2 M9,49v2V49z"/>
            <path class="st0" stroke="#1AD0B7" d="M135,47v6"/>
            <path class="st2" stroke="#1AD0B7" d="M148,50c0-0.6-0.4-1-1-1s-1,0.4-1,1s0.4,1,1,1S148,50.6,148,50z"/>
            <path class="st1" stroke="#FFFFFF" d="M21,38v24 M129,48v4V48z M117,46v8V46z M105,47v6V47z M93,46v8V46z M81,48v4V48z M69,32v35V32z M57,21v58V21z   M45,34v32V34z M33,48v4V48z"/>
            <path class="st2" stroke="#1AD0B7" d="M3,51c0.6,0,1-0.4,1-1s-0.4-1-1-1c-0.6,0-1,0.4-1,1S2.4,51,3,51z"/>
        </g>
    </symbol>

</svg>