<svg xmlns="http://www.w3.org/2000/svg" width="80" height="17" viewBox="0 0 80 17">
    <g fill="#969696" fill-rule="evenodd">
        <path d="M31.58 5.828v7.755h1.756V3.505h-2.43l-3.088 7.486-2.998-7.486h-2.529v10.078h1.65V5.827h.057l3.165 7.756h1.245l3.116-7.755zM34.995 13.583h1.72V6.361h-1.72v7.222zm.878-10.299c-.283 0-.53.095-.733.284a.931.931 0 0 0-.307.708c0 .277.102.51.304.695.2.184.448.277.736.277s.537-.093.74-.277a.901.901 0 0 0 .308-.695c0-.27-.101-.507-.3-.7a1.033 1.033 0 0 0-.748-.292zM41.847 6.187c-.79 0-1.494.167-2.092.497-.6.33-1.065.801-1.38 1.4-.315.599-.474 1.297-.474 2.076 0 .683.155 1.309.46 1.86.306.554.74.986 1.288 1.286.547.3 1.18.452 1.88.452.818 0 1.516-.162 2.076-.48l.023-.013V11.71l-.073.052a3.247 3.247 0 0 1-.841.433 2.571 2.571 0 0 1-.825.157c-.675 0-1.217-.208-1.61-.62-.394-.411-.594-.99-.594-1.717 0-.732.208-1.325.619-1.763.41-.436.953-.658 1.614-.658.565 0 1.116.19 1.637.563l.073.052v-1.64l-.024-.013a2.863 2.863 0 0 0-.796-.266 4.808 4.808 0 0 0-.961-.102M46.648 7.612V6.36h-1.72v7.222h1.72V9.89c0-.628.144-1.144.429-1.534.281-.385.655-.58 1.113-.58.155 0 .329.025.517.075.186.05.321.103.401.16l.072.051V6.35l-.028-.012c-.16-.067-.386-.101-.673-.101-.432 0-.82.137-1.15.407-.292.237-.502.563-.663.969h-.018zM53.09 12.351c-.632 0-1.13-.207-1.482-.614-.353-.41-.532-.994-.532-1.737 0-.766.179-1.365.533-1.782.35-.414.844-.625 1.467-.625.604 0 1.084.201 1.429.598.346.398.522.993.522 1.767 0 .785-.166 1.387-.491 1.79-.324.4-.81.603-1.446.603m.078-6.164c-1.207 0-2.164.349-2.847 1.037-.683.689-1.03 1.641-1.03 2.832 0 1.131.339 2.04 1.005 2.703.667.663 1.573.999 2.695.999 1.17 0 2.108-.354 2.791-1.052.682-.697 1.028-1.64 1.028-2.803 0-1.149-.324-2.065-.965-2.724-.64-.658-1.541-.992-2.677-.992M60.434 6.187c-.82 0-1.499.207-2.017.616-.522.41-.786.95-.786 1.602 0 .34.057.64.169.896a1.8 1.8 0 0 0 .52.671c.231.188.587.385 1.06.585.396.161.692.298.88.405.183.105.314.211.387.314.072.101.108.24.108.41 0 .485-.368.72-1.125.72-.28 0-.601-.057-.952-.171a3.595 3.595 0 0 1-.975-.488l-.072-.051v1.655l.026.013c.247.112.557.207.923.281.366.075.698.113.987.113.89 0 1.607-.208 2.13-.62.526-.413.793-.965.793-1.64 0-.487-.144-.904-.427-1.241-.281-.334-.769-.64-1.45-.912-.542-.214-.89-.393-1.033-.53-.138-.132-.208-.32-.208-.556 0-.21.087-.378.265-.515.179-.137.428-.206.74-.206.29 0 .588.045.883.134.295.088.554.207.77.352l.072.048v-1.57l-.028-.012a3.843 3.843 0 0 0-.782-.215 4.848 4.848 0 0 0-.858-.088M67.04 12.351c-.632 0-1.13-.207-1.482-.614-.353-.41-.532-.994-.532-1.737 0-.766.179-1.365.533-1.782.351-.414.845-.625 1.467-.625.604 0 1.085.201 1.429.598.346.398.522.993.522 1.767 0 .785-.166 1.387-.491 1.79-.324.4-.81.603-1.446.603m.078-6.164c-1.206 0-2.164.349-2.847 1.037-.683.689-1.029 1.641-1.029 2.832 0 1.13.338 2.04 1.004 2.703.667.663 1.573.999 2.695.999 1.17 0 2.108-.354 2.791-1.052.683-.697 1.028-1.64 1.028-2.803 0-1.149-.324-2.065-.964-2.724-.641-.658-1.542-.992-2.678-.992M79.937 7.746V6.361h-1.742V4.207l-.059.018-1.636.494-.032.01V6.36h-2.584v-.91c0-.423.096-.747.285-.963.188-.213.456-.322.799-.322.246 0 .5.058.757.17l.064.029v-1.46l-.03-.01c-.24-.085-.565-.128-.968-.128-.508 0-.97.11-1.373.326-.403.216-.72.526-.942.92a2.713 2.713 0 0 0-.333 1.348v1h-1.214v1.385h1.214v5.837h1.741V7.746h2.584v3.71c0 1.527.73 2.302 2.168 2.302a3.6 3.6 0 0 0 .74-.081c.259-.055.435-.11.538-.169l.023-.013v-1.399l-.07.047a1.223 1.223 0 0 1-.35.15 1.351 1.351 0 0 1-.345.058c-.337 0-.586-.09-.741-.267-.157-.178-.236-.49-.236-.928v-3.41h1.742zM.156 8.13H8.25V.138H.156zM9.092 8.13h8.093V.138H9.092zM.156 16.957H8.25V8.965H.156zM9.092 16.957h8.093V8.965H9.092z"></path>
    </g>
</svg>