<svg xmlns="http://www.w3.org/2000/svg" xmlns:xlink="http://www.w3.org/1999/xlink" version="1.1" id="Layer_1" x="0px" y="0px" viewBox="0 0 178 50" style="enable-background:new 0 0 178 50;" xml:space="preserve" width="178"  height="50" >
<style type="text/css">
	.st0{fill:none;}
	.st1{font-family:'ProximaNova-Light';}
	.st2{font-size:10px;}
	.st3{fill:#E31E2D;}
</style>
<rect x="81.01" y="35.36" class="st0" width="104.45" height="10.95"/>
<text transform="matrix(1 0 0 1 81.007 42.025)" class="st1 st2">a Bigtincan™ company</text>
<g>
	<path class="st3" d="M10.88,23.24h-4v3.46h4.04c1.62,0,2.51-0.63,2.51-1.71v-0.05C13.43,23.92,12.63,23.24,10.88,23.24 M12.72,17.9   c0-1.03-0.85-1.62-2.38-1.62H6.93v3.32h3.28c1.57,0,2.51-0.54,2.51-1.66V17.9L12.72,17.9z M1.81,12.07h9.65   c2.38,0,4.04,0.58,5.16,1.66c0.76,0.76,1.21,1.8,1.21,3.05v0.04c0,2.2-1.26,3.46-2.92,4.22c2.29,0.76,3.73,2.07,3.73,4.62v0.04   c0,3.23-2.65,5.21-7.14,5.21H1.76V12.07H1.81L1.81,12.07z"/>
	<path class="st3" d="M29.03,21.13c1.75,0,2.78-0.85,2.78-2.24v-0.05c0-1.53-1.12-2.24-2.83-2.24h-3.46v4.53H29.03L29.03,21.13z    M20.32,12.07h8.93c2.87,0,4.89,0.76,6.15,2.02c1.12,1.12,1.66,2.51,1.66,4.4v0.05c0,2.92-1.53,4.8-3.86,5.84l4.49,6.55h-6.01   l-3.81-5.7h-2.34v5.7h-5.21V12.07L20.32,12.07z"/>
	<polygon class="st3" points="55.07,12.07 60.27,12.07 60.27,30.92 55.07,30.92 55.07,12.07  "/>
	<polygon class="st3" points="63.47,12.07 68.32,12.07 76.09,22.03 76.09,12.07 81.25,12.07 81.25,30.92 76.72,30.92 68.63,20.59    68.63,30.92 63.47,30.92 63.47,12.07  "/>
	<path class="st3" d="M82.7,28.01l2.92-3.46c1.89,1.48,3.95,2.25,6.1,2.25c1.44,0,2.2-0.49,2.2-1.3v-0.04   c0-0.81-0.63-1.21-3.19-1.84c-4-0.9-7.09-2.06-7.09-5.88v-0.04c0-3.5,2.78-6.01,7.32-6.01c3.19,0,5.7,0.85,7.76,2.51l-2.6,3.68   c-1.71-1.26-3.59-1.84-5.3-1.84c-1.26,0-1.88,0.49-1.88,1.21v0.05c0,0.85,0.63,1.26,3.28,1.84c4.31,0.94,7,2.33,7,5.88v0.04   c0,3.86-3.05,6.15-7.63,6.15C88.22,31.1,85.03,30.07,82.7,28.01"/>
	<polygon class="st3" points="101.01,12.07 106.22,12.07 106.22,19.11 112.91,19.11 112.91,12.07 118.12,12.07 118.12,30.92    112.91,30.92 112.91,23.74 106.22,23.74 106.22,30.92 101.01,30.92 101.01,12.07  "/>
	<path class="st3" d="M146.08,21.13c1.75,0,2.78-0.85,2.78-2.24v-0.05c0-1.53-1.12-2.24-2.83-2.24h-3.46v4.53H146.08L146.08,21.13z    M137.42,12.07h8.93c2.87,0,4.89,0.76,6.15,2.02c1.12,1.12,1.66,2.51,1.66,4.4v0.05c0,2.92-1.53,4.8-3.86,5.84l4.49,6.55h-6.01   l-3.82-5.7h-2.33v5.7h-5.21V12.07L137.42,12.07z"/>
	<polygon class="st3" points="155.99,12.07 161.2,12.07 161.2,19.7 167.71,12.07 173.86,12.07 166.72,20.14 174.08,30.92    167.84,30.92 163.09,23.92 161.15,26.03 161.15,30.92 155.95,30.92 155.95,12.07 155.99,12.07  "/>
	<polygon class="st3" points="44.37,9 41.69,15.27 44.25,21.15 39.1,21.15 37.32,25.23 45.91,25.23 48.4,30.92 53.91,30.92 44.37,9     "/>
	<g>
		<polygon class="st3" points="126.72,9 124.04,15.27 126.6,21.15 121.45,21.15 119.68,25.23 128.26,25.23 130.75,30.92     136.26,30.92 126.72,9   "/>
		<path class="st3" d="M175.17,12.85v0.38h0.22c0.17,0,0.25-0.05,0.25-0.2c0-0.11-0.07-0.18-0.22-0.18H175.17L175.17,12.85z     M174.78,12.53h0.7c0.35,0,0.53,0.2,0.53,0.51c0,0.22-0.09,0.35-0.23,0.44l0.25,0.48h-0.42l-0.2-0.4h-0.24v0.4h-0.38V12.53    L174.78,12.53z M175.4,14.49c0.69,0,1.19-0.41,1.19-1.22c0-0.8-0.5-1.21-1.19-1.21c-0.7,0-1.2,0.41-1.2,1.21    C174.2,14.07,174.69,14.49,175.4,14.49L175.4,14.49z M175.4,11.83c0.93,0,1.46,0.57,1.46,1.44c0,0.87-0.54,1.45-1.46,1.45    c-0.94,0-1.47-0.58-1.47-1.45C173.93,12.39,174.46,11.83,175.4,11.83L175.4,11.83z"/>
	</g>
</g>
</svg>