<svg class="icon-logo" version="1.1" viewBox="0 0 146 25" xmlns="http://www.w3.org/2000/svg" xmlns:xlink="http://www.w3.org/1999/xlink" width="146"  height="25" ><path d="M66.468.001l-5.555 1.852v3.895h-2.7v3.479h2.7v9.418c0 4.452 1.592 6.354 5.319 6.354 1.649 0 2.765-.557 3.114-1.082v-4.049c-.519.288-1.083.334-1.621.334-1.043 0-1.257-.69-1.257-1.73V9.237h2.876V5.749h-2.876V.001zm37.56 0l-5.554 1.852v3.895h-2.702v3.479h2.702v9.418c0 4.452 1.59 6.354 5.317 6.354 1.65 0 2.765-.557 3.114-1.082v-4.049c-.517.288-1.082.334-1.62.334-1.044 0-1.257-.69-1.257-1.73V9.237h2.875V5.749h-2.875V.001zm10.377 8.013V5.749h-5.803v18.872h5.411V15.12v-.041c0-3.048 2.885-5.518 6.441-5.518.58 0 1.157.07 1.721.206v-4.47c-.154 0-.307-.01-.462-.01a10.97 10.97 0 0 0-7.31 2.731l.002-.004zm13.132 4.845c.802-1.918 2.62-3.55 6.251-3.55 3.631 0 6.097 1.653 6.333 3.55h-12.584zm18.456 2.285c0-4.547-3.126-9.857-11.867-9.857-8.742 0-11.818 5.31-11.818 9.857 0 4.548 3.096 9.856 11.843 9.856 6.315 0 9.686-2.771 11.07-6.024h-5.197c-1.236 1.17-2.845 2.003-5.829 2.003-4.586 0-6.114-1.96-6.856-4.109h18.51c.1-.57.151-1.147.151-1.726h-.007zm-55.9 4.044c-.949.94-4.14 1.99-6.82 1.99-5.114 0-5.986-1.15-5.986-2.567 0-1.418.872-2.566 5.982-2.566 2.68 0 5.87 1.04 6.819 1.98l.004 1.163zm4.934-.462v-3.981c0-3.55-1.7-6.263-4.913-7.846-2.17-1.07-5.04-1.612-8.529-1.612-5.204 0-8.33 1.253-10.219 2.303-.026.016 2.272 3.935 2.272 3.935s2.7-1.78 7.947-1.78c2.765 0 5.043.399 6.58 1.157 1.568.772 2.322 1.853 2.42 3.479-2.049-1.263-5.074-2.107-8.295-2.107-7.918 0-10.868 3.416-10.868 6.362 0 2.97 1.31 6.362 10.868 6.362 3.444 0 6.26-1.095 8.3-2.502.775 1.514 1.9 2.5 3.69 2.5a4.793 4.793 0 0 0 2.588-.767v-4.354s-1.836.609-1.836-1.15h-.005zm-43.95 5.898h5.802V0L51.07 1.95l.005 22.674zm-39.23-3.895c-3.556 0-6.44-2.47-6.44-5.518 0-3.047 2.88-5.521 6.435-5.521 3.556 0 6.442 2.47 6.442 5.518 0 3.047-2.884 5.517-6.442 5.517l.006.004zM18.29 8.388c-1.929-1.908-4.667-3.102-7.704-3.102C4.739 5.286 0 9.7 0 15.143S4.739 25 10.585 25c3.12 0 5.923-1.258 7.86-3.257v2.788h5.447V0L18.29 1.85v6.538zm12.59 4.47c.802-1.918 2.62-3.55 6.251-3.55 3.631 0 6.097 1.653 6.333 3.55H30.879zm6.589-7.567c-8.743-.004-11.818 5.306-11.818 9.853 0 4.548 3.096 9.856 11.842 9.856 6.316 0 9.686-2.771 11.071-6.024h-5.197c-1.235 1.17-2.845 2.003-5.829 2.003-4.586 0-6.114-1.96-6.856-4.109h18.504c.1-.57.15-1.147.15-1.726 0-4.547-3.126-9.857-11.867-9.857v.004z" fill="#F75258" fill-rule="nonzero"></path></svg>