<svg width="78" height="30" viewBox="0 0 78 30" fill="none" xmlns="http://www.w3.org/2000/svg">
<path d="M0.000396729 24.6276V19.7338H74.9278V29.5214H0.000396729V24.6276ZM4.98418 26.0872L5.03538 25.3145L7.25419 25.2286L9.473 25.1427L9.5242 24.6791L9.5754 24.1983H7.3566C6.14478 24.1983 5.10365 24.1296 5.05245 24.0438C4.98418 23.9579 5.00125 23.769 5.05245 23.6145C5.13779 23.3741 5.51328 23.3398 7.5102 23.3398C9.95089 23.3398 10.1216 23.2882 9.93382 22.6186C9.86555 22.3438 9.59247 22.3095 7.42487 22.3095C4.09666 22.3095 3.96011 22.4469 4.06252 25.469C4.11372 26.671 4.16493 26.9457 4.40387 26.9972C4.83057 27.0831 4.91591 26.9457 4.98418 26.0872ZM15.1907 24.7135V22.3095H14.1666V24.5933C14.1666 25.8639 14.2178 26.9457 14.2861 26.9972C14.3373 27.0659 14.5763 27.1174 14.7981 27.1174H15.1907V24.7135ZM23.5539 25.1427V23.3398H26.5578V22.3095H19.4576V23.3398H22.5298V26.9457H23.5539V25.1427ZM31.7464 25.1427C31.7464 23.8034 31.7976 23.3398 31.9683 23.3398C32.0878 23.3398 32.8729 24.0438 33.7092 24.9023C35.3306 26.5336 35.8939 26.9457 36.5936 26.9457C37.7542 26.9457 38.0615 26.3447 38.0615 24.0266V22.3095H37.0374V25.9154H36.5766C36.2182 25.9154 35.7061 25.5033 34.3236 24.1125C32.7705 22.5499 32.4462 22.3095 31.9683 22.3095C30.9101 22.3095 30.7223 22.7216 30.7223 24.971V26.9457H31.7464V25.1427ZM49.1555 26.5164V26.0872H46.5612C43.6085 26.0872 43.1818 26.0185 43.1818 25.5548C43.1818 25.2458 43.3525 25.2286 46.1686 25.2286H49.1555V24.1983H43.1818V23.3398H49.1555V22.3095H46.0833C43.0282 22.3095 42.994 22.3095 42.5844 22.7388C42.1919 23.1165 42.1577 23.2882 42.1577 24.5933C42.1577 25.7952 42.2089 26.1215 42.5162 26.4993L42.8575 26.9457H49.1555V26.5164ZM59.8058 26.4134C60.0447 26.1215 60.2495 25.7781 60.2495 25.6407C60.2495 25.2286 59.7716 24.4215 59.4815 24.3013C59.3279 24.2498 58.1502 24.1983 56.8531 24.1983C54.4977 24.1983 54.0198 24.0781 54.2246 23.5802C54.2929 23.3913 54.8903 23.3398 57.1091 23.3398H59.9082V22.3095H57.0408C54.7025 22.3095 54.1051 22.361 53.7979 22.5842C53.2347 22.9792 53.0128 23.6317 53.2688 24.2327C53.6102 25.0741 54.1734 25.2286 56.7336 25.2286C59.0889 25.2286 59.618 25.3831 58.9695 25.8639C58.7305 26.0356 57.9283 26.0872 55.8631 26.0872H53.0811V26.9457H59.362L59.8058 26.4134ZM70.5585 26.4134C70.7974 26.1215 71.0022 25.7781 71.0022 25.6407C71.0022 25.2286 70.5243 24.4215 70.2342 24.3013C70.0806 24.2498 68.9029 24.1983 67.6057 24.1983C65.2504 24.1983 64.7725 24.0781 64.9773 23.5802C65.0456 23.3913 65.6429 23.3398 67.8618 23.3398H70.6609V22.3095H67.7764C65.165 22.3095 64.8578 22.3438 64.4823 22.6529C63.629 23.3226 63.8508 24.6791 64.8578 25.0397C65.165 25.1427 66.411 25.2286 67.6057 25.2286C69.8416 25.2286 70.3536 25.3831 69.7221 25.8639C69.4832 26.0356 68.681 26.0872 66.6158 26.0872H63.8338V26.9457H70.1147L70.5585 26.4134ZM0.0686677 18.8237C0.0345322 18.7035 0.0174645 14.6854 0.0345322 9.86033L0.0857355 1.10299H4.8647V14.4107H9.21698V19.0469H4.67696C1.34875 19.0298 0.136939 18.9783 0.0686677 18.8237ZM9.89969 10.0149V0.999959L12.3404 1.05147L14.764 1.10299V18.9611L12.3404 18.9954L9.89969 19.0298V10.0149ZM15.4467 18.8409C15.3955 18.7207 15.3784 14.6854 15.3955 9.89467L15.4467 1.1545L19.543 1.13733L23.6392 1.10299L23.6904 3.30091L23.7416 5.48166H20.311V6.59779C20.311 7.37049 20.3793 7.71392 20.5329 7.73109C20.6353 7.73109 21.3521 7.76543 22.1031 7.76543L23.4685 7.79978L23.5198 9.9977L23.571 12.1784H20.311V19.0469H17.9215C16.1636 19.0469 15.4979 18.9954 15.4467 18.8409ZM24.4414 18.8924C24.2878 18.7894 24.2366 16.6086 24.2707 9.92901L24.3219 1.10299L28.6401 1.05147L32.9411 0.999959V5.48166H29.1862V7.69675L30.8589 7.74826L32.5145 7.79978L32.5657 9.9977L32.6169 12.1784H29.1862V13.3804C29.1862 14.2218 29.2545 14.5824 29.4081 14.5824C29.5105 14.5996 30.3639 14.5996 31.2856 14.5996H32.9411V19.0469L28.7937 19.0298C26.5066 19.0298 24.5438 18.9611 24.4414 18.8924ZM36.4742 18.9267C36.4059 18.8752 36.3547 15.7844 36.3547 12.0582V5.30994H33.6239V1.01713L38.7954 1.05147L43.9498 1.10299L43.984 3.21505L44.001 5.30994H41.1337V19.0469H38.8637C37.6006 19.0469 36.5254 18.9954 36.4742 18.9267ZM44.9227 18.9096C44.752 18.7894 44.7179 16.8834 44.752 9.92901L44.8032 1.10299L47.0732 1.05147L49.3262 0.982788V19.0469H47.2439C46.0833 19.0469 45.0422 18.9783 44.9227 18.9096ZM50.1796 10.032V1.01713L53.559 1.05147L56.9213 1.10299L57.4163 5.01803C57.7064 7.16444 57.9795 8.91591 58.0307 8.91591C58.0819 8.91591 58.3892 7.26747 58.6964 5.2756C59.0036 3.26656 59.2937 1.48075 59.3449 1.30904C59.4132 1.0343 59.6863 1.01713 62.6049 1.05147L65.7966 1.10299V18.9611L63.5436 18.9954L61.2736 19.0298L61.2565 14.4451C61.2395 11.9209 61.1883 10.0149 61.1371 10.2038C61.1029 10.3926 60.7445 12.436 60.3519 14.7541L59.6522 18.9611H56.085L55.5218 15.1834C55.2316 13.1057 54.9415 11.2512 54.9073 11.0623C54.822 10.6845 54.7879 11.6461 54.7367 16.042L54.7025 18.9611L52.4496 19.0126L50.1796 19.0641V10.032ZM66.7353 10.0149V1.01713L70.7974 1.05147L74.8425 1.10299L74.8937 3.30091L74.9449 5.48166H73.1528C72.1628 5.48166 71.3436 5.53317 71.3094 5.61903C71.2753 5.68771 71.2753 6.22002 71.3094 6.82101L71.3777 7.88563H74.5864V12.1956L73.1869 12.1784C72.4018 12.1613 71.6679 12.1613 71.5655 12.1613C71.4118 12.1784 71.3436 12.5562 71.3436 13.4663V14.7541H74.9278V19.0641L70.8315 19.0298L66.7353 19.0126V10.0149ZM75.73 2.7686C74.9619 1.91004 75.9519 0.639363 76.9077 1.25753C77.4368 1.61812 77.5733 2.15043 77.249 2.6484C76.9077 3.16354 76.1396 3.21505 75.73 2.7686ZM76.6175 2.5282C76.4127 2.1676 76.4127 2.15043 76.2932 2.47669C76.1567 2.87163 76.0031 2.63123 76.0201 2.04741C76.0372 1.73832 76.1396 1.60095 76.3956 1.56661C76.7711 1.5151 77.0783 1.96155 76.7882 2.13326C76.6004 2.25346 76.737 2.56254 76.993 2.56254C77.249 2.56254 77.1637 1.77267 76.8906 1.53227C76.5492 1.24036 75.8495 1.44641 75.73 1.85852C75.6276 2.30497 76.0543 2.90597 76.481 2.90597C76.7711 2.90597 76.7882 2.85445 76.6175 2.5282Z" fill="#605E5C"/>
</svg>
