<svg width="124" height="83" viewBox="0 0 124 83" fill="none" xmlns="http://www.w3.org/2000/svg">
<path d="M108.227 51.1179C108.285 51.1185 108.343 51.1071 108.396 51.0845C108.45 51.0618 108.498 51.0284 108.539 50.9863C108.579 50.9442 108.61 50.8943 108.63 50.8396C108.65 50.785 108.659 50.7268 108.655 50.6687C108.655 50.3501 108.463 50.1979 108.069 50.1979H107.431V51.8659H107.671V51.1388H107.966L107.972 51.1477L108.429 51.8659H108.686L108.194 51.1225L108.227 51.1179ZM107.95 50.9509H107.672V50.3869H108.024C108.206 50.3869 108.413 50.4167 108.413 50.6549C108.413 50.9289 108.203 50.9509 107.948 50.9509H107.95ZM14.8636 32.8796H18.401V45.7649H24.9499V49.0294H14.8636V32.8796ZM26.5138 38.0794H29.9121V49.0234H26.5138V38.0794ZM28.2129 32.6385C28.6028 32.6386 28.9839 32.7543 29.3081 32.971C29.6322 33.1876 29.8849 33.4955 30.034 33.8558C30.1832 34.216 30.2222 34.6124 30.1461 34.9947C30.0699 35.3771 29.8822 35.7284 29.6064 36.004C29.3307 36.2797 28.9795 36.4674 28.5971 36.5434C28.2147 36.6195 27.8183 36.5804 27.4581 36.4312C27.0979 36.282 26.79 36.0293 26.5734 35.7051C26.3568 35.3809 26.2412 34.9998 26.2412 34.6099C26.2412 34.351 26.2922 34.0946 26.3913 33.8554C26.4904 33.6162 26.6356 33.3989 26.8187 33.2158C27.0018 33.0328 27.2192 32.8876 27.4584 32.7885C27.6976 32.6895 27.954 32.6385 28.2129 32.6385ZM44.1277 32.8771H47.526V42.5287L51.3775 38.0744H55.544L51.0837 43.1411L55.4502 49.028H51.1789L47.5714 43.6183H47.5268V49.0273H44.1284L44.1277 32.8771ZM31.7964 38.0805H35.0599V39.5761H35.1062C35.4322 39.0176 35.9037 38.5582 36.4705 38.2468C37.0372 37.9354 37.6779 37.7839 38.324 37.8082C41.7701 37.8082 42.4045 40.0755 42.4045 43.0211V49.0227H39.0062V43.7018C39.0062 42.4317 38.9828 40.7991 37.2362 40.7991C35.4698 40.7991 35.1972 42.1821 35.1972 43.6094V49.0212H31.7989L31.7964 38.0805Z" fill="#605E5C"/>
<path d="M62.701 42.2777C62.7075 42.002 62.6579 41.7279 62.5553 41.4719C62.4528 41.2159 62.2993 40.9834 62.1042 40.7884C61.9092 40.5935 61.6765 40.4402 61.4205 40.3378C61.1644 40.2354 60.8902 40.186 60.6145 40.1927C60.0207 40.1558 59.4362 40.3536 58.987 40.7437C58.5378 41.1337 58.2598 41.6846 58.213 42.2777H62.701ZM65.5796 47.1274C65.0149 47.8122 64.305 48.3629 63.5012 48.7395C62.6975 49.116 61.82 49.3092 60.9324 49.3048C57.5341 49.3048 54.8133 47.0365 54.8133 43.5238C54.8133 40.0111 57.5337 37.7438 60.9324 37.7438C64.1088 37.7438 66.1007 40.0093 66.1007 43.5238V44.5893H58.213C58.3112 45.1936 58.6245 45.742 59.0952 46.1336C59.5658 46.5251 60.1621 46.7334 60.7742 46.72C61.2579 46.717 61.7331 46.5931 62.1567 46.3595C62.5803 46.1259 62.9387 45.7901 63.1994 45.3826L65.5796 47.1274ZM73.1841 40.7241C71.485 40.7241 70.4655 41.8586 70.4655 43.5117C70.4655 45.1649 71.4846 46.3005 73.1841 46.3005C74.8836 46.3005 75.9053 45.1677 75.9053 43.5117C75.9053 41.8558 74.8854 40.7241 73.1841 40.7241ZM79.0339 49.0206H75.9053V47.5692H75.8589C75.4664 48.0971 74.9573 48.5273 74.3713 48.8262C73.7853 49.1251 73.1382 49.2847 72.4804 49.2924C69.2151 49.2924 67.0643 46.9359 67.0643 43.6034C67.0643 40.5428 68.9677 37.7325 72.0967 37.7325C73.5031 37.7325 74.8167 38.1172 75.5874 39.1838H75.632V32.8753H79.0335L79.0339 49.0206ZM101.976 49.027H98.5775V43.705C98.5775 42.436 98.5549 40.8023 96.81 40.8023C95.04 40.8023 94.7692 42.185 94.7692 43.6126V49.0266H91.3709V38.0826H94.6333V39.5782H94.679C95.0055 39.0199 95.4772 38.5607 96.0441 38.2494C96.6109 37.9381 97.2516 37.7863 97.8978 37.8103C101.342 37.8103 101.977 40.0759 101.977 43.0232L101.976 49.027ZM87.5364 36.5866C87.1464 36.5867 86.7651 36.4711 86.4407 36.2544C86.1164 36.0378 85.8636 35.7298 85.7142 35.3695C85.5649 35.0092 85.5258 34.6127 85.6018 34.2301C85.6778 33.8475 85.8656 33.4961 86.1414 33.2203C86.4171 32.9444 86.7685 32.7565 87.151 32.6804C87.5335 32.6042 87.9301 32.6432 88.2905 32.7924C88.6508 32.9416 88.9589 33.1943 89.1756 33.5186C89.3924 33.8428 89.5081 34.2241 89.5082 34.6141C89.5082 34.8731 89.4573 35.1296 89.3582 35.3688C89.2591 35.6081 89.1139 35.8256 88.9308 36.0087C88.7477 36.1919 88.5304 36.3372 88.2911 36.4363C88.0519 36.5355 87.7954 36.5865 87.5364 36.5866ZM89.2356 49.027H85.8337V38.0826H89.2356V49.027ZM103.67 29.4865H84.1261C83.6825 29.4815 83.255 29.6529 82.9377 29.9628C82.6203 30.2728 82.439 30.6961 82.4336 31.1397V50.7647C82.4389 51.2085 82.62 51.6321 82.9374 51.9424C83.2547 52.2527 83.6823 52.4243 84.1261 52.4196H103.67C104.115 52.4252 104.543 52.254 104.862 51.9437C105.181 51.6335 105.363 51.2094 105.369 50.7647V31.1383C105.363 30.6938 105.18 30.27 104.862 29.9601C104.543 29.6501 104.115 29.4793 103.67 29.4851V29.4865ZM107.979 49.4542C107.566 49.4582 107.171 49.6257 106.88 49.9202C106.59 50.2147 106.428 50.6121 106.43 51.0256C106.432 51.4391 106.598 51.835 106.891 52.1266C107.184 52.4183 107.581 52.582 107.994 52.582C108.408 52.582 108.804 52.4183 109.097 52.1266C109.391 51.835 109.556 51.4391 109.558 51.0256C109.56 50.6121 109.398 50.2147 109.108 49.9202C108.818 49.6257 108.423 49.4582 108.009 49.4542H107.979ZM107.979 52.403C107.708 52.4075 107.442 52.3315 107.214 52.1846C106.986 52.0377 106.806 51.8264 106.698 51.5776C106.59 51.3288 106.559 51.0536 106.607 50.7867C106.656 50.5198 106.782 50.2733 106.971 50.0784C107.159 49.8834 107.401 49.7488 107.667 49.6914C107.932 49.6341 108.208 49.6567 108.46 49.7563C108.712 49.8559 108.929 50.028 109.084 50.251C109.238 50.474 109.323 50.7378 109.328 51.009V51.032C109.335 51.3877 109.201 51.7319 108.955 51.9889C108.709 52.2459 108.371 52.3946 108.015 52.4023H107.98" fill="#605E5C"/>
</svg>
