<?xml version="1.0" encoding="utf-8"?>
<!-- Generator: Adobe Illustrator 19.2.1, SVG Export Plug-In . SVG Version: 6.00 Build 0)  -->
<svg version="1.1" id="layer" xmlns="http://www.w3.org/2000/svg" xmlns:xlink="http://www.w3.org/1999/xlink" x="0px" y="0px"
	 viewBox="0 0 652 652" style="enable-background:new 0 0 652 652;" xml:space="preserve">
<style type="text/css">
	.st0{fill:#323534;}
	.st1{fill:#D91F43;}
</style>
<polygon class="st0" points="85.5,475.8 49.7,528.5 13.9,475.8 4.9,475.8 4.9,570 12.3,570 12.3,485.5 49.7,540.4 87.1,485.7 
	87.1,570 94.5,570 94.5,475.8 "/>
<g>
	<path class="st0" d="M118,556.1c6.7,4.6,17.5,8.6,29.6,8.6c16.9,0,24.8-8,24.8-18.5c0-29.2-56.9-10.6-56.9-47.1
		c0-14,11.6-24.9,31.2-24.9c12.6,0,22.5,3.1,29.9,6.7l-3.1,6.4c-6.7-3.4-15.6-6.3-26.5-6.3c-14.8,0-23.5,7.7-23.5,17.9
		c0,29.5,56.9,10.3,56.9,47.3c0,14.4-10.6,25.4-32.8,25.4c-13.9,0-26.3-4.5-33.5-9.4L118,556.1z"/>
	<polygon class="st0" points="226.5,482.6 191.1,482.6 191.1,475.8 269.4,475.8 269.4,482.6 234,482.6 234,570 226.5,570 	"/>
	<polygon class="st0" points="285.6,475.7 348.5,475.7 348.5,482.6 293.2,482.6 293.2,518.7 343.1,518.7 343.1,525.1 293.2,525.1 
		293.2,563.1 349.3,563.1 349.3,569.9 285.6,569.9 	"/>
	<path class="st0" d="M370.9,475.8h38.2c22.9,0,31,13.8,31,27.3c0,11.1-6.4,23.1-21.4,26.6l21,40.2h-8.4l-19.8-39.2h-2.2h-30.9v39.2
		h-7.5V475.8z M408.9,524.3c17.2,0,23.7-11,23.7-21.1c0-10.5-6.3-20.9-23.4-20.9h-30.7v42H408.9z"/>
	<path class="st0" d="M461.5,475.8H487c32.5,0,49.7,17.5,49.7,46.1c0,30-16.1,48.1-49.7,48.1h-25.5V475.8z M487.4,563.3
		c28,0,41.5-15.8,41.5-41.4c0-24.4-14.5-39.6-41.5-39.6H469v81H487.4z"/>
	<path class="st0" d="M582.5,475.7h9.5l36.1,94.2h-8.3l-9.5-25.4h-46.2l-9.4,25.4h-8.3L582.5,475.7z M566.5,538.2h41.4L587.4,483
		h-0.2L566.5,538.2z"/>
	<path class="st0" d="M-55.7,475.7h9.6l36.1,94.2h-8.3l-9.5-25.4h-46.2l-9.4,25.4h-8.3L-55.7,475.7z M-71.7,538.2h41.4L-50.9,483
		h-0.3L-71.7,538.2z"/>
	<polygon class="st0" points="645,475.7 654,475.7 689.8,528.5 725.5,475.7 734.5,475.7 734.5,569.9 727.1,569.9 727.1,485.7 
		689.8,540.3 652.4,485.5 652.4,569.9 645,569.9 	"/>
	<path class="st1" d="M600.3,71.5h134.4v70.2h-132h-5.2c-6.8,0-12.3-5.5-12.3-12.3v-4v-38v-3.5c0-6.8,5.5-12.3,12.3-12.3H600.3z"/>
	<path class="st1" d="M603.3,159.4h131.3v265.5l-135.7,0l-1.4,0c-6.8,0-12.3-5.5-12.3-12.3V412V171.5v0.2c0-6.8,5.5-12.3,12.3-12.3
		H603.3z"/>
	<path class="st1" d="M400.2,140.2c-71.6,0-114.6,6.6-143.3,21c-6,3-12.9,6.2-12.9,14.9l0,32.5v2.1c0,5.3,4.3,9.7,9.7,9.7h0.7
		c6.3-0.3,12.7-0.5,19-0.5c21.8,0,42.3,1.7,60.7,4.5h-0.1c2.9,0.3,4-1.8,4-3.4c0-1.5,0-20.8,0-20.8l0-2.8c0-9.9,8.1-18,18.1-18H378
		c9.9,0,18.1,8.1,18.1,18v6.6v65.2c-26.1-11.8-102.2-31.6-189.4-15.6c-58.1,10.7-87.8,40.5-87.8,86.9c0,123.9,226.6,95.5,269.8,79.7
		c6.5-2.4,6.9-2.6,6.9-2.6v7.3l146.2,0h1.8c6.8,0,12.3-5.5,12.3-12.3v-1.3v-249C539.6,154.4,474,140.2,400.2,140.2 M396,374.9
		c-13.4,4.3-25.3,5.9-37.8,5.9c-17.8,0-54.3-4.2-54.3-41.1c0-37.1,36.9-41.4,54.8-41.4c12.3,0,22.9,2,37.4,6.6V374.9z"/>
	<path class="st1" d="M213.8,224.4c-30.4,3.4-67.1,10.8-89.8,22.8c-3,1.6-6-0.7-6-3.5c0-2.7-0.1-46.3-0.1-46.3c0-9.9-8.1-18-18.1-18
		H77.9c-9.9,0-18.1,8.1-18.1,18v214.2l0,1c0,6.8-5.5,12.3-12.3,12.3l-2.7,0l-134.6,0V162.1c16.3-7.7,81.9-21.9,155.8-21.9
		c71.6,0,114.6,6.6,143.3,20.9c6,3,12.9,6.3,12.9,15v2.4v34v2.3C222.2,219.7,218.5,223.7,213.8,224.4"/>
</g>
</svg>
