<svg xmlns:xlink="http://www.w3.org/1999/xlink" xmlns="http://www.w3.org/2000/svg" width="144" height="27" fill="none"><g clip-path="url(#clip0_5497_2152)"><path d="M22.384.061L5.504 3.444a.314.314 0 00-.246.307v6.503c0 .154.107.277.246.307l16.88 3.382a.316.316 0 00.368-.307V.354c0-.185-.184-.339-.368-.293zM.369 26.934l16.88-3.383a.314.314 0 00.246-.307v-6.503a.314.314 0 00-.246-.307L.369 13.052a.316.316 0 00-.369.307v13.252c0 .215.17.353.369.323z" fill="#FE5000"/><path d="M32.115 17.618c0-.277.307-.446.538-.308 2.352 1.415 5.135 2.045 6.826 2.045 1.844 0 3.213-.738 3.213-2.46 0-2.137-2.168-2.321-5.135-3.29C34.375 12.56 31.5 10.992 31.5 6.98 31.5 2.675 34.76 0 39.602 0c2.198 0 4.858.538 6.856 1.553.123.061.184.184.184.323v4.166a.356.356 0 01-.538.307c-2.32-1.307-4.888-1.922-6.548-1.922-1.722 0-2.967.63-2.967 2.168 0 2.045 2.136 2.198 4.904 3.12 3.474 1.154 6.287 2.768 6.287 6.857 0 4.49-3.413 7.21-8.378 7.21-2.23 0-4.966-.538-7.103-1.583a.359.359 0 01-.2-.323v-4.258h.016zm23.321-.754c-.246 0-.415.246-.339.492.677 1.83 2.353 2.675 4.413 2.675 1.568 0 3.259-.477 4.78-1.384a.356.356 0 01.539.308v3.198a.354.354 0 01-.17.307c-1.537.892-3.797 1.337-5.795 1.337-5.165 0-8.901-3.213-8.901-8.132 0-5.012 3.89-8.255 8.224-8.255 3.86 0 7.487 2.552 7.487 7.81 0 .414-.015.937-.061 1.337a.352.352 0 01-.354.323h-9.823v-.016zm5.35-3.06a.35.35 0 00.338-.46c-.415-1.415-1.568-2.245-2.983-2.245-1.352 0-2.551.753-3.074 2.23a.361.361 0 00.338.476h5.38zm8.071-4.78v14.05c0 .2.154.354.354.354h4.135c.2 0 .354-.153.354-.353V8.194c0-.23-.2-.4-.43-.354l-4.136.83a.378.378 0 00-.277.354zm8.408 9.824c0-.262.292-.446.523-.308 2.044 1.06 4.289 1.522 5.657 1.522 1.337 0 2.137-.354 2.137-1.215 0-1.214-1.753-1.091-4.12-1.69-2.967-.738-4.72-1.984-4.72-4.566.03-3.321 2.967-5.196 6.857-5.196 1.814 0 4.027.353 5.78 1.153.123.061.2.184.2.322v3.352c0 .261-.277.43-.523.322-1.952-.983-4.09-1.414-5.38-1.414-1.276 0-2.045.384-2.045 1.122 0 1.153 1.69 1.046 4.012 1.63 2.998.738 4.812 1.876 4.812 4.597-.03 3.443-3.028 5.319-7.04 5.319-1.815 0-4.136-.354-5.981-1.215a.359.359 0 01-.2-.323v-3.413h.03zm39.878-9.885c-.922-.954-2.29-1.568-4.043-1.568-1.86 0-3.613.645-5.212 1.983a.365.365 0 01-.507-.062c-.984-1.337-2.782-1.906-4.35-1.906-1.907 0-3.506.769-4.72 1.783l-.062-.03v-.97c0-.23-.2-.399-.43-.353l-4.074.815a.362.362 0 00-.292.354V23.09c0 .2.154.354.354.354h4.135c.2 0 .354-.154.354-.354V13.021a.33.33 0 01.138-.277c.784-.63 1.876-1.168 2.936-1.168.631 0 1.215.184 1.661.676.415.446.568 1.092.568 2.137v8.701c0 .2.154.354.354.354h4.135c.2 0 .354-.154.354-.354v-9.5c0-.17 0-.354-.015-.523a.305.305 0 01.123-.292c.814-.676 1.89-1.184 2.951-1.184.63 0 1.215.185 1.66.677.385.415.569.953.569 2.137v8.7c0 .2.154.354.354.354h4.135c.2 0 .354-.153.354-.353v-9.5c.015-2.245-.431-3.629-1.43-4.643zm26.858 13.405a.375.375 0 01-.184.323c-1.461.753-3.229 1.106-4.95 1.106-5.043 0-8.732-3.443-8.732-8.163 0-4.934 4.074-8.224 8.993-8.224 1.66 0 3.213.369 4.458.953.123.061.2.184.2.323v3.643a.356.356 0 01-.538.307c-1.245-.707-2.583-1.152-3.905-1.152-2.582 0-4.366 1.752-4.366 4.12 0 2.398 1.814 4.073 4.428 4.073 1.322 0 2.828-.43 4.043-1.183.23-.154.538.03.538.307v3.567h.015zM122.232 9.024v14.05c0 .2.154.354.354.354h4.135c.2 0 .354-.153.354-.353V8.194c0-.23-.2-.4-.43-.354l-4.136.83a.378.378 0 00-.277.354zM71.271 5.55a2.767 2.767 0 100-5.534 2.767 2.767 0 000 5.534zm53.375 0a2.767 2.767 0 100-5.534 2.767 2.767 0 000 5.534z" fill="#22092B"/></g><defs><clipPath id="clip0_5497_2152"><path fill="#fff" d="M0 0h144v27H0z"/></clipPath></defs></svg>