<?xml version="1.0" encoding="UTF-8"?>
<svg style="enable-background:new 0 0 1002.6 347.2" version="1.1" viewBox="0 0 1002.6 347.2" xml:space="preserve" xmlns="http://www.w3.org/2000/svg">
<title>SRG SSR logo</title>
<style type="text/css">
	.st0{fill:#AF001D;}
	.st1{fill:#FFFFFF;}
</style>
<path class="st0" d="M0,347.2h1002.6V0H0V347.2z"/>
<path class="st1" d="m64.6 228.8-3 19.4c-0.5 3.8 1.3 5.3 4.6 5.8 7.3 1 25.7 2.3 43.7 2.3 40.1 0 69.4-13.1 69.4-50.5 0-22-9.6-38.4-42.9-47l-18.7-4.8c-12.6-3.3-18.4-7.3-18.4-16.7 0-13.1 12.1-15.7 23.7-15.7 15.6 0 31.6 1.3 37.9 1.8 6.6 0.5 8.3-0.3 9.3-5.8l3-18.9c0.5-3.8-1.3-5.3-4.6-5.8-7.3-1-23.5-2.3-43.9-2.3-41.6 0-61.8 18.2-61.8 47 0 26 14.1 41.4 38.6 47.7l18.7 4.8c15.4 4 22 8.6 22 18.2 0 14.1-9.6 16.7-32.8 16.7-10.6 0-29-1.5-35.3-2-6.7-0.6-8.5 0.2-9.5 5.8"/>
<path class="st1" d="m260.1 170.9-2.5 10.6c-0.8 3-1 4.6-1 5.6 0 2.5 0.7 4.6 2.5 7.6l30 54c2.5 4.3 4.6 6.1 10.6 6.1h27.5c3.5 0 7.8-2.3 3.8-8.6l-36.9-61.1c12.4-7.8 26.3-18.9 26.3-43.4 0-31.6-17.7-49.2-56.6-49.2h-56.3c-5.1 0-6.6 1.8-6.6 6.8v148.7c0 5.1 1.5 6.8 6.6 6.8h23.2c5.1 0 6.6-1.8 6.6-6.8v-125.5h24c15.1 0 22.4 5.6 22.4 19.7 0 12.9-5.8 16.9-11.6 19.4-7.2 3-9.7-0.3-12 9.3"/>
<path class="st1" d="m473.7 245.2v-81.1c0-5-1.5-6.8-6.6-6.8h-41.4c-5.1 0-6.6 1.8-6.6 6.8v17.4c0 5 1.5 6.8 6.6 6.8h11.9v35.4c-1.5 0.3-6.6 0.5-12.4 0.5-34.3 0-43.2-22.2-43.2-52.8 0-38.6 14.7-48.5 46.5-48.5 9.6 0 22.5 0.8 29.8 1.3 6.6 0.5 8.3-0.3 9.3-5.8l3-18.2c0.8-5-0.2-7.3-5.6-7.8-1.8-0.3-13.1-1.8-39.1-1.8-59.3 0-83.3 30.6-83.3 80.8 0 49.8 19.7 85.1 81 85.1 27.5 0 37.9-1.3 43.2-2.5 5.4-1.2 6.9-3.3 6.9-8.8"/>
<path class="st1" d="m542.6 228.8-3 19.4c-0.5 3.8 1.3 5.3 4.6 5.8 7.3 1 25.7 2.3 43.7 2.3 40.1 0 69.4-13.1 69.4-50.5 0-22-9.6-38.4-42.9-47l-18.7-4.8c-12.6-3.3-18.4-7.3-18.4-16.7 0-13.1 12.1-15.7 23.7-15.7 15.6 0 31.6 1.3 37.8 1.8 6.6 0.5 8.3-0.3 9.4-5.8l3-18.9c0.5-3.8-1.3-5.3-4.5-5.8-7.3-1-23.5-2.3-43.9-2.3-41.7 0-61.9 18.2-61.9 47 0 26 14.1 41.4 38.6 47.7l18.7 4.8c15.4 4 22 8.6 22 18.2 0 14.1-9.6 16.7-32.8 16.7-10.6 0-29.1-1.5-35.3-2-6.7-0.6-8.5 0.2-9.5 5.8"/>
<path class="st1" d="m673.1 228.8-3 19.4c-0.5 3.8 1.3 5.3 4.5 5.8 7.3 1 25.8 2.3 43.7 2.3 40.1 0 69.4-13.1 69.4-50.5 0-22-9.6-38.4-42.9-47l-18.7-4.8c-12.6-3.3-18.4-7.3-18.4-16.7 0-13.1 12.1-15.7 23.7-15.7 15.7 0 31.6 1.3 37.9 1.8 6.5 0.5 8.3-0.3 9.3-5.8l3-18.9c0.5-3.8-1.2-5.3-4.5-5.8-7.3-1-23.5-2.3-43.9-2.3-41.7 0-61.9 18.2-61.9 47 0 26 14.2 41.4 38.6 47.7l18.7 4.8c15.4 4 22 8.6 22 18.2 0 14.1-9.6 16.7-32.8 16.7-10.6 0-29-1.5-35.3-2-6.6-0.6-8.4 0.2-9.4 5.8"/>
<path class="st1" d="m868.5 170.9-2.5 10.6c-0.7 3-1 4.6-1 5.6 0 2.5 0.8 4.6 2.6 7.6l30 54c2.5 4.3 4.5 6.1 10.6 6.1h27.5c3.6 0 7.8-2.3 3.8-8.6l-36.9-61.1c12.4-7.8 26.3-18.9 26.3-43.4 0-31.6-17.7-49.2-56.5-49.2h-56.4c-5 0-6.6 1.8-6.6 6.8v148.7c0 5.1 1.5 6.8 6.6 6.8h23.2c5 0 6.6-1.8 6.6-6.8v-125.5h24c15.1 0 22.5 5.6 22.5 19.7 0 12.9-5.8 16.9-11.6 19.4-7.4 3-9.9-0.3-12.2 9.3"/>
</svg>
