<svg xmlns="http://www.w3.org/2000/svg" xmlns:xlink="http://www.w3.org/1999/xlink" width="186" height="36" viewBox="0 0 186 36" version="1.1">
    <title>brand/logo-header</title>
    <g id="Symbols" stroke="none" stroke-width="1" fill="none" fill-rule="evenodd">
        <g id="HEADER-DESKTOP" transform="translate(-22.000000, -20.000000)">
            <g id="brand/logo-header" transform="translate(16.000000, 8.000000)">
                <polygon id="fond" points="0 60 200 60 200 0 0 0"/>
                <g id="Group" transform="translate(6.600000, 13.000000)">
                    <g id="videofutur" transform="translate(52.600000, 9.200000)" fill="#162E49">
                        <path d="M56.9133837,0 C62.8629301,0 63.7914286,3.65636852 63.7914286,6.04683152 C63.7914286,8.4363605 62.8629301,12.0942857 56.9133837,12.0942857 C50.9662427,12.0942857 50.0371429,8.4363605 50.0371429,6.04683152 C50.0371429,3.65636852 50.9662427,0 56.9133837,0 Z M81.9746149,0.237142857 L81.9748075,6.96253179 C81.9797886,8.10166489 82.1038204,9.89725271 84.7797743,9.89725271 C87.5368178,9.89725271 87.5831294,7.99119254 87.5831294,6.86085089 L87.5831294,6.86085089 L87.5831294,0.237142857 L90.5885714,0.237142857 L90.5883866,7.70765705 C90.581154,9.04216315 90.3317854,12.0942857 84.7797743,12.0942857 C79.1246475,12.0942857 78.9685714,8.92807489 78.9685714,7.63531521 L78.9685714,0.237142857 L81.9746149,0.237142857 Z M108.770487,0.237142857 L108.770677,6.96253179 C108.775592,8.10166489 108.898518,9.89725271 111.575263,9.89725271 C114.334325,9.89725271 114.380039,7.99119254 114.380039,6.86085089 L114.380039,6.86085089 L114.380039,0.237142857 L117.385714,0.237142857 L117.385529,7.70765705 C117.378264,9.04216315 117.128001,12.0942857 111.575263,12.0942857 C105.920299,12.0942857 105.765714,8.92807489 105.765714,7.63531521 L105.765714,0.237142857 L108.770487,0.237142857 Z M3.30667804,0.474285714 L6.52082577,9.14782295 L9.7361791,0.474285714 L13.0428571,0.474285714 L8.12036459,11.8571429 L4.92188975,11.8571429 L5.32907052e-15,0.474285714 L3.30667804,0.474285714 Z M18.26,0.474285714 L18.26,11.8571429 L15.4142857,11.8571429 L15.4142857,0.474285714 L18.26,0.474285714 Z M28.8428658,0.474285714 C32.7118868,0.474285714 34.3857143,2.73798362 34.3857143,6.16586902 C34.3857143,9.59344495 32.6490532,11.8571429 29.1116713,11.8571429 L29.1116713,11.8571429 L21.8171429,11.8571429 L21.8171429,0.474285714 Z M47.8403818,0.474285714 L47.8403818,2.64261107 L40.4854961,2.64261107 L40.4854961,5.0024868 L47.4679443,5.0024868 L47.4679443,7.07488225 L40.4854961,7.07488225 L40.4854961,9.6894364 L47.9028571,9.6894364 L47.9028571,11.8571429 L37.4685714,11.8571429 L37.4685714,0.474285714 L47.8403818,0.474285714 Z M76.5971429,0.474285714 L76.5971429,2.64261107 L69.5004973,2.64261107 L69.5004973,5.12936183 L76.1494725,5.12936183 L76.1494725,7.29737774 L69.5004973,7.29737774 L69.5004973,11.8571429 L66.4,11.8571429 L66.4,0.474285714 L76.5971429,0.474285714 Z M104.105714,0.474285714 L104.105714,2.64261107 L99.9391924,2.64261107 L99.9391924,11.8571429 L96.8887686,11.8571429 L96.8887686,2.64261107 L92.7228571,2.64261107 L92.7228571,0.474285714 L104.105714,0.474285714 Z M128.868296,0.474285714 C131.981849,0.474285714 132.50052,2.40283873 132.50052,3.56764515 C132.50052,4.95526256 131.950405,5.84743496 130.676776,6.31007725 L130.676776,6.31007725 L130.676776,6.34133268 C132.013598,6.54959908 132.217525,8.27050462 132.217525,9.38672586 C132.217525,9.94375336 132.26576,11.2840234 132.8,11.8571429 L132.8,11.8571429 L129.465119,11.8571429 C129.18304,11.3316802 129.16686,10.8693474 129.16686,9.67328556 C129.16686,8.07894905 128.491581,7.68067438 127.547044,7.68067438 L127.547044,7.68067438 L123.756685,7.68067438 L123.756685,11.8571429 L120.705714,11.8571429 L120.705714,0.474285714 Z M56.9133837,2.18062032 C54.1883248,2.18062032 53.2270523,4.26628217 53.2270523,6.04683152 C53.2270523,7.82738087 54.1883248,9.91242003 56.9133837,9.91242003 C59.6393446,9.91242003 60.6009178,7.82738087 60.6009178,6.04683152 C60.6009178,4.26628217 59.6393446,2.18062032 56.9133837,2.18062032 Z M28.0070248,2.64267002 L24.8797475,2.64267002 L24.8797475,9.68968693 L28.2908491,9.68968693 C30.3119475,9.68968693 31.2277864,8.46144127 31.2277864,6.05415405 C31.2277864,3.95013737 30.3441305,2.64267002 28.0070248,2.64267002 L28.0070248,2.64267002 Z M127.642291,2.64236056 L123.756685,2.64236056 L123.756685,5.51136169 L127.798594,5.51136169 C128.47479,5.51136169 129.260581,5.12948839 129.260581,4.06278071 C129.260581,2.92953919 128.381069,2.64236056 127.642291,2.64236056 L127.642291,2.64236056 Z" id="Combined-Shape"/>
                    </g>
                    <path d="M29.4085925,28.399417 L30.3730205,30.0064551 L29.4085925,31.6134933 L28.4445748,30.0064551 L29.4085925,28.399417 Z M27.4807621,28.399417 L26.516129,26.792275 L27.4807621,25.1853408 L28.4445748,26.792275 L27.4807621,28.399417 Z M25.3914076,31.6134933 L24.4269795,30.0064551 L25.3914076,28.399417 L26.3554252,30.0064551 L25.3914076,31.6134933 Z M53.6827836,1.80386134 L54.8,-0.0432965508 L54.1681182,-0.0432965508 C45.4940484,-0.0432965508 37.6972033,4.48133035 33.4086401,11.5554157 L27.4104971,21.5042594 L21.3909482,11.5533476 C17.102385,4.47967594 9.30471669,-0.0451577713 0.631470144,-0.0451577713 L0,-0.0451577713 L1.12153873,1.80303413 C8.95769627,1.96971676 15.9489435,6.11920435 19.8246223,12.511049 L26.3371213,23.2782092 L25.3703627,24.8780316 L18.3875544,13.3345356 C14.9817732,7.70868661 8.95934286,3.93557916 2.15436701,3.4843366 L2.13296125,3.48268218 L3.32942016,5.45392144 C8.99639131,6.22570752 13.9398887,9.53309625 16.8214343,14.2920301 L24.2973986,26.6515679 L23.3306401,28.2507699 L15.3866304,15.1146896 C13.0023572,11.1575281 9.05155232,8.28339012 4.4585744,7.29528887 L4.43449291,7.2897052 L5.82627946,9.58707164 C9.16599085,10.745578 12.0032842,13.0551457 13.8188638,16.0703229 L22.2580876,30.024513 L21.2902999,31.6237149 L12.3908521,16.9022884 C11.165166,14.8597024 9.40474749,13.1616489 7.31356865,12.0130691 L7.27816681,11.9936297 L10.781303,17.7878157 L10.8230854,17.8575081 L19.3162354,31.9064136 L20.6697385,34.1847543 L21.8902789,34.1847543 L23.3306401,31.7986696 L24.7495955,34.1847543 L25.9701359,34.1847543 L27.4104971,31.7986696 L28.8294525,34.1847543 L30.0499929,34.1847543 L31.490354,31.7986696 L32.9103386,34.1847543 L34.1207936,34.1847543 L43.9765029,17.8583353 L44.0182853,17.7892633 L47.5218332,11.9950773 L47.4851964,12.0143099 C45.3956642,13.1628897 43.634834,14.8609432 42.4087363,16.9033224 L33.5300767,31.6237149 L32.5629065,30.024513 L40.9796955,16.0719773 C42.7963042,13.0559729 45.6327742,10.7468188 48.9766021,9.58707164 L50.3659187,7.29115282 L50.3401907,7.29632288 C45.7482419,8.28504454 41.7968195,11.1587689 39.4129579,15.1161372 L31.490354,28.2507699 L30.5223605,26.6515679 L37.9783599,14.2934777 C40.8603172,9.53413026 45.8036087,6.22694833 51.4763429,5.45433504 L52.6662155,3.4843366 L52.6464563,3.48516381 C45.8402455,3.93744038 39.8182268,7.70951382 36.4116223,13.3366036 L29.4502197,24.8780316 L28.4830495,23.2782092 L34.9745544,12.5127034 C38.8502332,6.12085876 45.8414804,1.97116438 53.6827836,1.80386134 L53.6827836,1.80386134 Z" id="iso" fill="#F9590F"/>
                    <g id="baseline" transform="translate(55.800000, 24.800000)" fill="#F9590F">
                        <path d="M27.8164748,2.63160763 L27.8164748,5.7492723 C27.8164748,6.70336591 27.8483805,7.28796799 27.9125017,7.50307854 C27.9766228,7.7181891 28.0930942,7.88855154 28.2622254,8.01416587 C28.4316664,8.13978021 28.646333,8.20242756 28.9062251,8.20242756 C29.2032889,8.20242756 29.4696861,8.11836504 29.7051069,7.95024 C29.9402179,7.78211497 30.1012952,7.57307737 30.1880292,7.32408611 C30.2744534,7.07477522 30.3178204,6.46492242 30.3178204,5.49388845 L30.3178204,2.63160763 L32.0577657,2.63160763 L32.0577657,9.41637983 L30.441726,9.41637983 L30.441726,8.40059776 C30.2022783,8.76273781 29.887558,9.04816682 29.4975649,9.25656516 C29.1075718,9.46528312 28.6955855,9.56948229 28.2622254,9.56948229 C27.8208115,9.56948229 27.4243133,9.46975793 27.0733505,9.26935033 C26.7226975,9.06926236 26.4686909,8.78830816 26.3119502,8.42616811 C26.1552096,8.06434768 26.0768392,7.56380812 26.0768392,6.92486905 L26.0768392,2.63160763 L27.8164748,2.63160763 Z M71.1292388,0.239237057 L71.1292388,3.54564389 C71.6686909,2.92784644 72.3084916,2.61863443 73.047706,2.61863443 C73.8533002,2.61863443 74.5199021,2.9121822 75.0472001,3.49865118 C75.5744981,4.08512016 75.8381471,4.92722946 75.8381471,6.02529237 C75.8381471,7.16063615 75.5692002,8.03532706 75.031618,8.64905181 C74.4937242,9.26277656 73.8408345,9.56948229 73.0723258,9.56948229 C72.6946158,9.56948229 72.3218922,9.47455702 71.9544665,9.28470649 C71.5870407,9.09454267 71.270101,8.81383957 71.0045821,8.4422839 L71.0045821,9.41910563 L69.3787466,9.41910563 L69.3787466,0.239237057 L71.1292388,0.239237057 Z M84.6326757,2.39237057 C85.6234214,2.39237057 86.4046647,2.71853136 86.9773465,3.37054023 C87.5497146,4.02254909 87.8235104,5.02167059 87.7984203,6.367592 L83.3853836,6.367592 C83.3979286,6.88857367 83.5400014,7.29385112 83.8116018,7.58342436 C84.0832023,7.8729976 84.4219187,8.01778422 84.8274377,8.01778422 C85.1028016,8.01778422 85.3348851,7.94273284 85.523061,7.79263008 C85.7112368,7.64284004 85.8529959,7.40111205 85.9492792,7.06775884 L87.7043324,7.36139736 C87.478835,8.00308666 87.1225555,8.49185877 86.6358073,8.82708827 C86.1487456,9.16263048 85.5396832,9.33024523 84.8083064,9.33024523 C83.6507115,9.33024523 82.7938842,8.95342476 82.2381383,8.19884568 C81.799375,7.59499478 81.5798365,6.83228513 81.5798365,5.91134216 C81.5798365,4.81121401 81.8683728,3.94968671 82.4451317,3.32676025 C83.0218906,2.7038338 83.7510719,2.39237057 84.6326757,2.39237057 Z M3.05108882,2.49424838 C3.83266697,2.49424838 4.415105,2.58576064 4.79777865,2.76816892 C5.1804523,2.95119345 5.44982208,3.18320939 5.60588801,3.46421674 C5.7616418,3.74553222 5.83967476,4.26194485 5.83967476,5.01314652 L5.82094685,7.033195 C5.82094685,7.60815083 5.84903872,8.03181871 5.90522245,8.30512301 C5.96140618,8.57811919 6.06628249,8.87052706 6.22016349,9.18265475 L4.48595893,9.18265475 C4.44007555,9.0677252 4.38389182,8.89733368 4.31740774,8.67148019 C4.28806734,8.56887553 4.26746664,8.50108867 4.25498137,8.4681196 C3.95533479,8.75559752 3.63508751,8.97128299 3.29423953,9.11486789 C2.95307942,9.25845278 2.58913369,9.33024523 2.20240233,9.33024523 C1.5200821,9.33024523 0.982903193,9.14783695 0.589617063,8.78240414 C0.196643065,8.41697133 -5.32907052e-15,7.95478819 -5.32907052e-15,7.39647095 C-5.32907052e-15,7.02703255 0.0895818407,6.69765003 0.268121258,6.40801526 C0.44728494,6.11868861 0.697614683,5.8968407 1.02004688,5.74308777 C1.34247908,5.58902672 1.80724341,5.45468549 2.41433985,5.33944783 C3.23368596,5.18785175 3.80145379,5.04611559 4.11764335,4.91454745 L4.11764335,4.7423072 C4.11764335,4.40953534 4.03430415,4.17258944 3.86825001,4.03085328 C3.7015716,3.88911711 3.38787909,3.81824903 2.92623608,3.81824903 C2.61410424,3.81824903 2.37095353,3.87894908 2.19615969,4.00004107 C2.02136585,4.12113305 1.87997013,4.3337373 1.77197251,4.63754569 L0.181036472,4.35407336 C0.35957589,3.72211494 0.667650025,3.25407747 1.10432248,2.94996096 C1.54099494,2.64615257 2.18991705,2.49424838 3.05108882,2.49424838 Z M80.1826169,2.39237057 C80.5831198,2.39237057 80.9689052,2.50519453 81.3405995,2.73116207 L80.7960533,4.29631489 C80.4995121,4.10039113 80.2242642,4.00226944 79.9696834,4.00226944 C79.7235574,4.00226944 79.5150078,4.07162581 79.3440347,4.20969933 C79.1727485,4.34841208 79.0380993,4.59867033 78.9404004,4.96047408 C78.8420753,5.32259745 78.7932258,6.08072334 78.7932258,7.23485175 L78.7932258,9.33024523 L77.0343324,9.33024523 L77.0343324,2.54578559 L78.6679708,2.54578559 L78.6679708,3.51038253 C78.9472895,3.05461207 79.1987389,2.75449394 79.4223191,2.60970852 C79.645273,2.46492309 79.8986012,2.39237057 80.1826169,2.39237057 Z M67.9433243,2.74452308 L67.9433243,9.33024523 L66.2686649,9.33024523 L66.2686649,2.74452308 L67.9433243,2.74452308 Z M12.0169886,0.239237057 L14.2929148,6.96767519 L16.4951864,0.239237057 L18.4212534,0.239237057 L15.2007073,9.33024523 L13.2623646,9.33024523 L10.0479564,0.239237057 L12.0169886,0.239237057 Z M21.2859823,2.39237057 C22.2678743,2.39237057 23.0727138,2.71853136 23.700195,3.37054023 C24.3276763,4.0228618 24.6414169,4.8465507 24.6414169,5.84254506 C24.6414169,6.84698269 24.3246184,7.67911487 23.6910213,8.33956701 C23.0574243,9.00033187 22.2596179,9.33024523 21.2982139,9.33024523 C20.7031464,9.33024523 20.1359058,9.19296375 19.5958805,8.91777536 C19.0558552,8.64289968 18.6454849,8.23949851 18.3644638,7.70850999 C18.0831369,7.17720877 17.9427793,6.53020333 17.9427793,5.76749368 C17.9427793,5.18428191 18.0831369,4.61952028 18.3644638,4.0738342 C18.6454849,3.52783541 19.0436236,3.11130025 19.5591857,2.82360329 C20.0747478,2.53621905 20.6502447,2.39237057 21.2859823,2.39237057 Z M64.5940054,0.239237057 L64.5940054,1.77715691 L60.2057061,1.77715691 L60.2057061,3.92875549 L63.9932927,3.92875549 L63.9932927,5.46667535 L60.2057061,5.46667535 L60.2057061,9.33024523 L58.373842,9.33024523 L58.373842,0.239237057 L64.5940054,0.239237057 Z M36.0620544,2.39237057 C36.9733705,2.39237057 37.6503481,2.54027767 38.0936148,2.83640456 C38.5368814,3.13221875 38.8418037,3.56968603 39.009009,4.14880641 L37.3476218,4.4549397 C37.2764105,4.19664951 37.1415169,3.99871042 36.942941,3.86112242 C36.7443651,3.72384713 36.4610885,3.65505313 36.093425,3.65505313 C35.6294538,3.65505313 35.2969254,3.71978203 35.0964672,3.84861442 C34.9625147,3.94054822 34.8956954,4.05937421 34.8956954,4.20509241 C34.8956954,4.32985971 34.9543584,4.4361777 35.0713707,4.5237337 C35.230106,4.64068349 35.7787779,4.80485099 36.7173864,5.01748698 C37.6556811,5.23012297 38.3110131,5.49060206 38.6830684,5.79892425 C39.0507319,6.11131154 39.2348774,6.54690263 39.2348774,7.10507211 C39.2348774,7.71358629 38.9798344,8.23642067 38.4697483,8.67388795 C37.959976,9.11135524 37.2051993,9.33024523 36.2063592,9.33024523 C35.2991213,9.33024523 34.5813619,9.14700304 34.0524535,8.78020595 C33.5235451,8.41340886 33.177841,7.91559048 33.0147139,7.2864381 L34.7830749,7.01751611 C34.8580506,7.3592972 35.0108255,7.61852549 35.240772,7.79582638 C35.4704048,7.97281458 35.7922672,8.06162138 36.2063592,8.06162138 C36.6618604,8.06162138 37.0047411,7.97813048 37.2346876,7.81146138 C37.3893447,7.69482429 37.4665164,7.53847429 37.4665164,7.3427241 C37.4665164,7.20920121 37.4247935,7.09881811 37.3413477,7.01126211 C37.25351,6.92808391 37.0568163,6.85084702 36.751894,6.78017682 C35.3304919,6.46747683 34.4295282,6.18229444 34.0493164,5.92400425 C33.522604,5.56565006 33.2590909,5.06751898 33.2590909,4.4299237 C33.2590909,3.85486842 33.4868415,3.37174694 33.9426564,2.97993385 C34.3981576,2.58843347 35.1049373,2.39237057 36.0620544,2.39237057 Z M50.4198671,2.39237057 C51.2017966,2.39237057 51.7839518,2.48524666 52.1669567,2.67037339 C52.5493375,2.85612556 52.8190329,3.09159926 52.9747945,3.37679451 C53.1308683,3.66230247 53.2089051,4.18641127 53.2089051,4.94880821 L53.1898641,6.99896174 C53.1898641,7.58248622 53.2179574,8.01246808 53.2744561,8.28984548 C53.3303305,8.56691015 53.4352121,8.86367582 53.5891008,9.18045519 L51.8548092,9.18045519 C51.8089236,9.06381283 51.7530491,8.89088194 51.6865617,8.66166252 C51.6572199,8.55752873 51.636306,8.48873163 51.6238201,8.45527123 C51.3244706,8.74703347 51.0042073,8.96593332 50.66303,9.11165809 C50.3221649,9.25738285 49.9582009,9.33024523 49.571138,9.33024523 C48.8890957,9.33024523 48.3515777,9.14511849 47.9582718,8.77423959 C47.5652781,8.40336069 47.3689373,7.93428956 47.3689373,7.36765164 C47.3689373,6.99270746 47.4582115,6.6584161 47.637072,6.36446486 C47.8159326,6.07082634 48.066587,5.8456722 48.3890354,5.68962787 C48.7111716,5.53327083 49.1762714,5.39692749 49.7833983,5.27997242 C50.6027856,5.12611709 51.1705819,4.98226861 51.4867873,4.8487397 L51.4867873,4.67393253 C51.4867873,4.33620132 51.4034439,4.09572419 51.2370693,3.95187571 C51.0706947,3.80802723 50.7566743,3.73610299 50.2950081,3.73610299 C49.9831727,3.73610299 49.7396977,3.79770766 49.5652072,3.9206043 C49.3904046,4.04350093 49.2490018,4.25927365 49.1406866,4.56760974 L47.5499829,4.27991278 C47.7285313,3.6385362 48.0363087,3.1635235 48.4733152,2.8548747 C48.9100096,2.54653862 49.5586521,2.39237057 50.4198671,2.39237057 Z M46.172752,0.239237057 L46.172752,9.33024523 L44.4980926,9.33024523 L44.4980926,0.239237057 L46.172752,0.239237057 Z M72.5802433,3.96513211 C72.161085,3.96513211 71.8120461,4.12898002 71.5340616,4.45667582 C71.2557654,4.78437163 71.1167732,5.28218103 71.1167732,5.95010403 C71.1167732,6.63901711 71.2246012,7.14841805 71.440569,7.47799357 C71.7437966,7.94572764 72.1464378,8.17943803 72.6491161,8.17943803 C73.0352404,8.17943803 73.3643342,8.01339713 73.6363975,7.68131534 C73.9081492,7.34954683 74.0443367,6.82667465 74.0443367,6.11301208 C74.0443367,5.35329666 73.9072143,4.8053617 73.6329694,4.46920721 C73.3590363,4.13305272 73.0081275,3.96513211 72.5802433,3.96513211 Z M4.11764335,6.04165809 C3.89322055,6.11560739 3.53770238,6.20373031 3.05108882,6.30633497 C2.56416314,6.40924775 2.24610079,6.50969555 2.0962775,6.60829462 C1.86748485,6.76820999 1.7532446,6.97157058 1.7532446,7.21806825 C1.7532446,7.46025222 1.84469923,7.66977525 2.02760849,7.84602109 C2.21082989,8.02288317 2.44368025,8.11100609 2.7264717,8.11100609 C3.04266126,8.11100609 3.34418063,8.00840143 3.6310298,7.80319212 C3.84327946,7.64697421 3.98249026,7.45624664 4.04897435,7.23039314 C4.09485773,7.08249453 4.11764335,6.80117906 4.11764335,6.38644671 L4.11764335,6.04165809 Z M51.4867873,5.99264782 C51.2620411,6.0676992 50.9065051,6.15713543 50.4198671,6.26126921 C49.932917,6.36571572 49.6148387,6.46766051 49.4650079,6.56772902 C49.2365159,6.73002763 49.1222699,6.93641892 49.1222699,7.18659019 C49.1222699,7.43238346 49.2137291,7.64502903 49.3966476,7.82390149 C49.579566,8.00339937 49.8124281,8.0928356 50.0952337,8.0928356 C50.4114391,8.0928356 50.7129736,7.98870181 50.9998372,7.78043423 C51.2120975,7.62188819 51.3513153,7.42831817 51.4181149,7.19909875 C51.4640006,7.04899599 51.4867873,6.76348803 51.4867873,6.34257488 L51.4867873,5.99264782 Z M21.2920981,3.82366293 C20.8438098,3.82366293 20.4670764,3.99878282 20.1612864,4.34870988 C19.8558021,4.69863694 19.702907,5.20304476 19.702907,5.8613079 C19.702907,6.51988376 19.8558021,7.02397886 20.1612864,7.37390592 C20.4670764,7.7241457 20.8438098,7.89895287 21.2920981,7.89895287 C21.7403864,7.89895287 22.1162024,7.7241457 22.4198519,7.37390592 C22.7231957,7.02397886 22.8751734,6.51550576 22.8751734,5.84879934 C22.8751734,5.19866676 22.7231957,4.69863694 22.4198519,4.34870988 C22.1162024,3.99878282 21.7403864,3.82366293 21.2920981,3.82366293 Z M84.7393086,3.73610299 C84.3548027,3.73610299 84.0374128,3.87588618 83.7865117,4.15482715 C83.5356106,4.43408082 83.4126691,4.81340301 83.4164326,5.29248098 L86.0496396,5.29248098 C86.0370946,4.7843206 85.9053715,4.39780599 85.6544704,4.13293716 C85.4038829,3.86838105 85.0987245,3.73610299 84.7393086,3.73610299 Z M67.9433243,0.239237057 L67.9433243,1.85161742 L66.2686649,1.85161742 L66.2686649,0.239237057 L67.9433243,0.239237057 Z M3.13193097,1.77635684e-15 L3.99310274,1.84133765 L2.88846813,1.84133765 L1.16674885,1.77635684e-15 L3.13193097,1.77635684e-15 Z" id="Combined-Shape"/>
                    </g>
                </g>
            </g>
        </g>
    </g>
</svg>