<?xml version="1.0" encoding="utf-8"?>
<!-- Generator: Adobe Illustrator 23.1.0, SVG Export Plug-In . SVG Version: 6.00 Build 0)  -->
<svg version="1.1" id="Logo" xmlns="http://www.w3.org/2000/svg" xmlns:xlink="http://www.w3.org/1999/xlink" x="0px" y="0px"
	 viewBox="0 0 199 47.9" style="enable-background:new 0 0 199 47.9;" xml:space="preserve">
<style type="text/css">
	.st0{fill:#0D2096;}
	.st1{fill:url(#SVGID_1_);}
	.st2{fill:url(#SVGID_2_);}
	.st3{fill:url(#SVGID_3_);}
	.st4{fill:url(#SVGID_4_);}
</style>
<g>
	<g>
		<path class="st0" d="M63.5,24.3l-5.8-14h2.7l3.3,8.4l3.6-8.8l3.6,8.8l3.3-8.4h2.6l-5.7,14l-3.8-9L63.5,24.3z"/>
		<path class="st0" d="M89,23.8h-2.6L85,20.9h-5.7l-1.4,2.9h-2.6l6.9-14L89,23.8z M80.2,19h4l-2-4.2L80.2,19z"/>
		<path class="st0" d="M93.2,23.8h-2.5V10.3h3.8c3,0,5.1,1.5,5.1,4.2c0,1.8-1,3.1-2.6,3.7l4.2,5.6h-2.9l-3.8-5.2h-1.2L93.2,23.8
			L93.2,23.8z M93.2,16.6h1.3c1.5,0,2.6-0.7,2.6-2.1c0-1.4-1-2.1-2.6-2.1h-1.3V16.6z"/>
		<path class="st0" d="M132.3,23.8h-2.5V10.3h3.8c3,0,5.1,1.5,5.1,4.2c0,1.8-1,3.1-2.6,3.7l4.2,5.6h-2.8l-3.8-5.2h-1.2L132.3,23.8
			L132.3,23.8z M132.3,16.6h1.3c1.5,0,2.6-0.7,2.6-2.1c0-1.4-1-2.1-2.6-2.1h-1.3V16.6z"/>
		<path class="st0" d="M112.8,10.3h2.5v14l-9.5-9.1v8.6h-2.5v-14l9.5,9.1V10.3z"/>
		<path class="st0" d="M118.5,10.3h8.3v2.1H121v3.5h5.4V18H121v3.8h5.9v2.1h-8.3L118.5,10.3L118.5,10.3z"/>
		<path class="st0" d="M146.8,10.3h3.9c3,0,4.6,1.4,4.6,3.6c0,1.4-0.9,2.4-1.9,2.8c1.5,0.4,2.7,1.5,2.7,3.3c0,2.4-1.9,3.8-4.8,3.8
			h-4.5L146.8,10.3L146.8,10.3z M150.5,16c1.4,0,2.3-0.6,2.3-1.8s-0.9-1.8-2.3-1.8h-1.3V16H150.5z M151.2,21.7
			c1.4,0,2.4-0.7,2.4-1.9c0-1.2-1-1.9-2.4-1.9h-1.9v3.8C149.2,21.7,151.2,21.7,151.2,21.7z"/>
		<path class="st0" d="M161.2,23.8h-2.5V10.3h3.8c3,0,5.1,1.5,5.1,4.2c0,1.8-1,3.1-2.6,3.7l4.2,5.6h-2.9l-3.8-5.2h-1.2L161.2,23.8
			L161.2,23.8z M161.2,16.6h1.3c1.5,0,2.6-0.7,2.6-2.1c0-1.4-1-2.1-2.6-2.1h-1.3V16.6z"/>
		<path class="st0" d="M183.7,17c0,3.8-3,6.9-6.9,6.9c-3.8,0-6.9-3.1-6.9-6.9s3-6.9,6.9-6.9C180.7,10.1,183.7,13.2,183.7,17z
			 M172.4,17c0,2.7,2,4.6,4.4,4.6c2.5,0,4.4-2,4.4-4.6s-2-4.6-4.4-4.6C174.4,12.4,172.4,14.4,172.4,17z"/>
		<path class="st0" d="M189.6,21.9c1.4,0,2.4-0.6,2.4-1.7c0-0.9-0.6-1.3-1.4-1.7l-2.2-1.1c-1.4-0.7-2.7-1.5-2.7-3.5
			c0-2.4,1.9-3.9,4.4-3.9c1.5,0,2.9,0.6,3.6,1.3v2.6c-1-1-2.4-1.8-3.7-1.8c-1.1,0-2,0.5-2,1.5c0,0.7,0.5,1.1,1.3,1.5l2.1,1
			c2,0.9,3,1.8,3,3.7c0,2.5-2.1,4.1-4.8,4.1c-1.7,0-3.2-0.6-4.1-1.3V20C186.6,21.1,188,21.9,189.6,21.9z"/>
		<path class="st0" d="M199,22.3c0,0.9-0.7,1.5-1.5,1.5h-0.1c-0.9,0-1.5-0.7-1.5-1.5c0-0.9,0.7-1.5,1.5-1.5h0.1
			C198.3,20.8,199,21.5,199,22.3z"/>
	</g>
	<g>
		<path class="st0" d="M142.8,41.8h-2.5V28.3h3.8c3,0,5.1,1.5,5.1,4.2c0,1.8-1,3.1-2.6,3.7l4.2,5.6h-2.9l-3.8-5.2h-1.2L142.8,41.8
			L142.8,41.8z M142.8,34.6h1.3c1.5,0,2.6-0.7,2.6-2.1c0-1.4-1-2.1-2.6-2.1h-1.3V34.6z"/>
		<path class="st0" d="M128.9,28.3h8.3v2.1h-5.9v3.5h5.4V36h-5.4v3.8h5.9v2.1h-8.3L128.9,28.3L128.9,28.3z"/>
		<path class="st0" d="M113.2,35.1c0,3.8-3,6.9-6.9,6.9s-6.9-3.1-6.9-6.9s3-6.9,6.9-6.9C110.2,28.1,113.2,31.3,113.2,35.1z
			 M102,35.1c0,2.7,2,4.6,4.4,4.6c2.5,0,4.4-2,4.4-4.6c0-2.7-2-4.6-4.4-4.6C103.9,30.4,102,32.4,102,35.1z"/>
		<path class="st0" d="M61.9,28.3c3.8,0,6.9,2.9,6.9,6.7s-3.1,6.7-6.9,6.7h-4.2V28.3H61.9z M60.2,30.4v9.4h1.5
			c2.7,0,4.6-2.1,4.6-4.6c0-2.6-1.9-4.6-4.6-4.6L60.2,30.4L60.2,30.4z"/>
		<path class="st0" d="M73.9,28.3v13.5h-2.5V28.3H73.9z"/>
		<path class="st0" d="M80.6,39.9c1.4,0,2.4-0.6,2.4-1.7c0-0.9-0.6-1.3-1.4-1.7l-2.2-1.1c-1.4-0.7-2.7-1.5-2.7-3.5
			c0-2.4,1.9-3.9,4.4-3.9c1.5,0,2.9,0.6,3.6,1.3v2.6c-1-1-2.4-1.8-3.7-1.8c-1.1,0-2,0.5-2,1.5c0,0.7,0.5,1.1,1.3,1.5l2.1,1
			c2,0.9,3,1.8,3,3.7c0,2.5-2.1,4.1-4.8,4.1c-1.7,0-3.2-0.6-4.1-1.3v-2.6C77.6,39.1,79,39.9,80.6,39.9z"/>
		<path class="st0" d="M97.5,38.2v2.9c-1,0.6-2.2,1-3.5,1c-3.8,0-6.9-3.1-6.9-6.9s3.1-6.9,6.9-6.9c1.3,0,2.5,0.3,3.5,1V32
			c-0.8-0.9-2-1.4-3.4-1.4c-2.6,0-4.5,2-4.5,4.6c0,2.6,2,4.6,4.5,4.6C95.5,39.7,96.7,39.1,97.5,38.2z"/>
		<path class="st0" d="M113.4,28.3h2.8l4.2,9l4.2-9h2.6l-6.9,14L113.4,28.3z"/>
		<path class="st0" d="M155.3,41.8v-6.1l-5-7.4h2.8l3.5,5.1l3.5-5.1h2.8l-5,7.4v6L155.3,41.8L155.3,41.8z"/>
	</g>
</g>
<g>
	
		<linearGradient id="SVGID_1_" gradientUnits="userSpaceOnUse" x1="3.1528" y1="68.2472" x2="46.3835" y2="68.2472" gradientTransform="matrix(1 0 0 -1 0 92)">
		<stop  offset="0" style="stop-color:#4047FF"/>
		<stop  offset="1" style="stop-color:#04006C"/>
	</linearGradient>
	<path class="st1" d="M46.4,15.6c-0.3,2.2-1.4,9.6-6.8,16.8c-5.5,7.4-12.7,11.1-14.8,12.1c-2.2-1.1-9.4-4.7-14.9-12.1
		c-5.4-7.2-6.5-14.6-6.8-16.8l3.3-1.8v-2.5l3.3-1.8V7.2c4.5-2.1,9.4-3.5,15.1-4.3c5.7,0.7,10.6,2.1,15.1,4.3v2.4l3.3,1.8v2.5
		L46.4,15.6z"/>
	<g>
		
			<linearGradient id="SVGID_2_" gradientUnits="userSpaceOnUse" x1="0" y1="68.0602" x2="49.5363" y2="68.0602" gradientTransform="matrix(1 0 0 -1 0 92)">
			<stop  offset="0" style="stop-color:#FFC800"/>
			<stop  offset="1" style="stop-color:#E9A600"/>
		</linearGradient>
		<path class="st2" d="M46,12.1V9.7L42.7,8V5.5l-1.6-0.9c-4.7-2.2-9.9-3.7-16-4.5L24.8,0l-0.4,0.1c-6,0.8-11.2,2.3-16,4.5L6.8,5.4
			v2.5L3.5,9.7v2.4L0,14l0.3,2c0.9,6.7,3.4,12.9,7.3,18.2c4,5.3,9.3,9.7,15.9,13l1.3,0.6l1.3-0.6c6.6-3.3,12-7.7,15.9-13.1
			c3.9-5.3,6.4-11.4,7.3-18.2l0.3-2L46,12.1z M46.4,15.6c-0.3,2.2-1.4,9.6-6.8,16.8c-5.5,7.4-12.7,11.1-14.8,12.1
			c-2.2-1.1-9.4-4.7-14.9-12.1c-5.4-7.2-6.5-14.6-6.8-16.8l3.3-1.8v-2.5l3.3-1.8V7.2c4.5-2.1,9.4-3.5,15.1-4.3
			c5.7,0.7,10.6,2.1,15.1,4.3v2.4l3.3,1.8v2.5L46.4,15.6z"/>
	</g>
	<g>
		
			<linearGradient id="SVGID_3_" gradientUnits="userSpaceOnUse" x1="6.9076" y1="68.1136" x2="23.2594" y2="68.1136" gradientTransform="matrix(1 0 0 -1 0 92)">
			<stop  offset="0" style="stop-color:#FFD100"/>
			<stop  offset="1" style="stop-color:#FABB00"/>
		</linearGradient>
		<path class="st3" d="M19.9,8.8l0.2,19.8l-0.2,0.1c-2.1-5.3-3.4-11.9-3.7-18.5c-1,0.5-2.1,1-3.3,1.8c0.4,6,1.5,11.3,3.3,16.2
			l-1.1,0.6c-2.8-3.8-4.6-8.6-5.8-14.2c-0.9,0.7-1.7,1.6-2.5,2.6C8.4,23.9,11,29,14.7,33.1l2.9-1.7c1.4,2.9,3.4,5.8,5.6,8.1V8.2
			C22.1,8.3,21.1,8.5,19.9,8.8z"/>
	</g>
	<g>
		
			<linearGradient id="SVGID_4_" gradientUnits="userSpaceOnUse" x1="26.2911" y1="68.1136" x2="40.7216" y2="68.1136" gradientTransform="matrix(1 0 0 -1 0 92)">
			<stop  offset="0" style="stop-color:#F7B700"/>
			<stop  offset="1" style="stop-color:#E9A600"/>
		</linearGradient>
		<path class="st4" d="M38.4,19c1.2-1.3,1.4-2.2,1.4-3.4c0-1.6-1.3-3-3.3-4.3c-1.2-0.7-3-1.7-5.6-2.4c-1.5-0.4-3.1-0.6-4.7-0.7v31.3
			c6.6-3.4,14.4-12.7,14.4-17.4C40.8,20.7,40,19.7,38.4,19z M29.6,12c1.6,0,6.8,1.7,6.8,3.7c0,0.7-0.6,1.8-2.7,2.9l-4.1,2.2V12z
			 M33.6,29.3c-0.9,1.1-2.5,2.7-4.1,4v-8.9c0,0,5.9-3.4,6.1-3.5c1.8,0.4,1.7,1.8,1.7,1.9C37.4,24.4,35.7,26.9,33.6,29.3z"/>
	</g>
</g>
</svg>
